<svg width="21" height="13" viewBox="0 0 21 13" fill="none" xmlns="http://www.w3.org/2000/svg">
<path d="M0.000536554 6.37641C0.141114 6.15275 0.258619 5.91028 0.425488 5.70867C1.83931 3.99899 3.48921 2.56835 5.44925 1.51674C7.32558 0.509754 9.31619 -0.00906272 11.4592 0.17212C13.0876 0.309754 14.5873 0.844699 15.9872 1.67319C17.8844 2.79577 19.4286 4.3162 20.8172 6.00813C21.0689 6.31458 21.0603 6.67372 20.8022 7.0049C19.9276 8.12802 18.9237 9.12372 17.8056 10.0011C16.5447 10.9909 15.1775 11.7958 13.6521 12.307C11.1174 13.156 8.62833 13.035 6.18916 11.935C4.56661 11.2033 3.16889 10.149 1.91979 8.89576C1.3269 8.3006 0.78176 7.65705 0.224816 7.02695C0.125017 6.91404 0.073508 6.75813 0 6.62211C0 6.53985 0 6.45759 0 6.37533L0.000536554 6.37641ZM1.64615 6.46888C1.99759 6.85006 2.30396 7.19845 2.62697 7.53125C3.87017 8.81135 5.24589 9.91243 6.89204 10.6377C9.1123 11.6162 11.3524 11.6259 13.6043 10.7533C15.1598 10.1506 16.5205 9.23393 17.7444 8.11243C18.2917 7.61082 18.7998 7.06619 19.3439 6.52265C18.9935 6.14254 18.6828 5.78931 18.3545 5.45275C17.1182 4.18555 15.7538 3.09308 14.1216 2.3705C11.8949 1.38448 9.64993 1.37319 7.3905 2.24738C5.93375 2.81082 4.64281 3.65007 3.48224 4.68609C2.85179 5.24899 2.26694 5.86243 1.64508 6.46888H1.64615Z" fill="white"/>
<path d="M10.4978 10.2393C8.44604 10.2393 6.76716 8.55492 6.7677 6.49847C6.76824 4.44148 8.44819 2.75869 10.5 2.75977C12.5512 2.76084 14.2328 4.44632 14.2322 6.50062C14.2312 8.55599 12.5491 10.2399 10.4978 10.2393ZM10.5139 4.23503C9.2659 4.22912 8.25181 5.22804 8.24054 6.47428C8.22927 7.73395 9.23209 8.75707 10.4844 8.76352C11.7303 8.76997 12.7497 7.76675 12.7589 6.52428C12.7685 5.26514 11.7641 4.24095 10.5139 4.23503Z" fill="white"/>
</svg>
