<svg width="42" height="43" viewBox="0 0 42 43" fill="none" xmlns="http://www.w3.org/2000/svg">
<path d="M17.4896 0.5C7.85113 0.5 0.00012207 8.351 0.00012207 17.9894C0.00012207 27.6279 7.85113 35.4789 17.4896 35.4789C21.6809 35.4789 25.5301 33.9905 28.5468 31.5198L38.9893 41.9623C39.1504 42.1301 39.3435 42.2641 39.5571 42.3564C39.7706 42.4488 40.0005 42.4975 40.2332 42.4999C40.4659 42.5023 40.6967 42.4582 40.9121 42.3702C41.1276 42.2823 41.3233 42.1522 41.4878 41.9877C41.6524 41.8232 41.7824 41.6274 41.8704 41.412C41.9583 41.1966 42.0024 40.9658 42 40.7331C41.9977 40.5004 41.9489 40.2705 41.8566 40.0569C41.7643 39.8433 41.6302 39.6503 41.4624 39.4892L31.02 29.0467C33.4906 26.03 34.979 22.1808 34.979 17.9894C34.979 8.351 27.128 0.5 17.4896 0.5ZM17.4896 3.99789C25.2376 3.99789 31.4811 10.2414 31.4811 17.9894C31.4811 25.7375 25.2376 31.981 17.4896 31.981C9.74152 31.981 3.49801 25.7375 3.49801 17.9894C3.49801 10.2414 9.74152 3.99789 17.4896 3.99789Z" fill="white"/>
</svg>
