<svg width="27" height="42" viewBox="0 0 27 42" fill="none" xmlns="http://www.w3.org/2000/svg">
<g clip-path="url(#clip0_64_612)">
<path d="M14.2776 0.10083C15.1919 0.337801 16.1505 0.462635 17.0134 0.832902C20.355 2.26531 22.365 4.88363 22.9981 8.62228C23.117 9.3279 23.1392 10.0579 23.1442 10.7772C23.1624 13.2697 23.1402 15.7632 23.1594 18.2566C23.1825 21.3553 23.7823 24.3343 24.9103 27.196C24.9708 27.3504 25.0817 27.5028 25.2067 27.6054C26.3629 28.5554 26.9848 29.7931 26.9919 31.3345C27.007 34.7949 26.9979 38.2553 26.9979 41.7147C26.9979 41.7803 26.9848 41.8448 26.9757 41.9305H0.0261461C0.0150578 41.8586 -6.25921e-05 41.8067 -6.25921e-05 41.7549C0.00396952 38.1993 -0.0121589 34.6436 0.0241301 31.0891C0.0382424 29.6884 0.679347 28.5723 1.69544 27.6773C1.87386 27.5197 2.03716 27.3049 2.12486 27.0806C3.30324 24.0868 3.85766 20.9638 3.84657 17.7256C3.8385 15.3284 3.84657 12.9301 3.84455 10.5329C3.84354 7.34644 4.92415 4.66041 7.22547 2.55518C8.69316 1.21269 10.4118 0.438303 12.3432 0.181231C12.4692 0.164305 12.5942 0.128336 12.7192 0.10083C13.2384 0.10083 13.7575 0.10083 14.2766 0.10083H14.2776ZM13.4883 34.2258C13.5569 34.1676 13.5992 34.138 13.6345 34.1009C16.6001 30.9907 19.5657 27.8804 22.5223 24.7607C22.614 24.6633 22.6604 24.4433 22.6291 24.3058C22.2461 22.6205 21.9386 20.9205 21.9124 19.1865C21.8681 16.2858 21.864 13.385 21.856 10.4831C21.853 9.46754 21.7572 8.46994 21.4427 7.5083C19.845 2.63981 14.9994 0.2574 10.4098 2.07594C7.45228 3.24811 5.22958 6.47367 5.16809 9.77434C5.12273 12.198 5.14188 14.6238 5.14491 17.0485C5.14793 19.4669 4.96144 21.863 4.36973 24.2084C4.29514 24.5057 4.36671 24.676 4.56227 24.8791C5.88278 26.2481 7.19221 27.6286 8.50466 29.0071C8.60143 29.1087 8.69417 29.2144 8.72239 29.2451C8.42503 29.6006 8.15588 29.9232 7.84339 30.2967C6.50977 28.8928 5.19228 27.507 3.85967 26.1042C3.72258 26.4925 3.60666 26.8818 3.44739 27.2499C3.3234 27.5355 3.398 27.709 3.5996 27.9185C6.61663 31.0711 9.62458 34.2332 12.6356 37.3921C13.2716 38.0596 13.7283 38.0596 14.3643 37.3921C16.1909 35.4762 18.0174 33.5582 19.844 31.6413C21.0375 30.3887 22.234 29.1415 23.4174 27.8794C23.5233 27.7672 23.622 27.5419 23.5878 27.4086C23.4729 26.9664 23.2954 26.5422 23.1281 26.0746C19.9145 29.4472 16.7251 32.7944 13.576 36.1004C12.1154 34.5685 10.688 33.0726 9.30604 31.6233C9.55704 31.343 9.83828 31.0309 10.1346 30.6997C11.2465 31.8677 12.3553 33.0335 13.4894 34.2247L13.4883 34.2258ZM6.3747 32.7468C6.09951 33.1245 5.82028 33.4366 5.61868 33.7962C4.80117 35.2562 5.00882 36.8663 6.25172 38.0956C6.84142 38.6785 7.21439 39.2677 7.06117 40.1352C6.99363 40.515 7.15592 40.6102 7.50873 40.6092C11.5035 40.5965 15.4994 40.6018 19.4942 40.6007C19.6313 40.6007 19.7673 40.5848 19.9135 40.5764C19.9236 40.4674 19.9448 40.3986 19.9337 40.3352C19.7694 39.3598 20.1595 38.6838 20.8268 38.0014C22.3136 36.4802 22.1614 34.1538 20.5728 32.7965C20.473 32.897 20.3691 32.9965 20.2693 33.1012C18.591 34.8626 16.9136 36.6251 15.2342 38.3865C14.1224 39.5523 12.8724 39.5513 11.7586 38.3823C10.0792 36.6209 8.40184 34.8584 6.72348 33.097C6.62368 32.9933 6.51986 32.8938 6.3747 32.7489V32.7468ZM25.6734 40.5848C25.6986 40.5161 25.7157 40.4907 25.7157 40.4664C25.7157 37.3635 25.7369 34.2596 25.7016 31.1578C25.6905 30.1634 25.2339 29.3393 24.5152 28.7574C23.5263 29.7942 22.5586 30.8087 21.5747 31.8402C21.6544 31.9481 21.7461 32.0994 21.862 32.2242C23.5989 34.103 23.6362 37.171 21.6272 39.0794C21.1483 39.5343 21.1866 40.021 21.2481 40.5848H25.6744H25.6734ZM2.49178 28.7437C1.67125 29.4387 1.27509 30.3686 1.27408 31.4964C1.27408 34.3813 1.27408 37.2662 1.27408 40.1522C1.27408 40.2844 1.27408 40.4177 1.27408 40.5658H5.74871C5.86061 39.9279 5.74468 39.455 5.28401 38.9821C3.42017 37.0684 3.36675 34.3178 5.09047 32.2781C5.21849 32.1269 5.3324 31.9618 5.44328 31.8148C4.46146 30.7939 3.49678 29.7899 2.49178 28.7437Z" fill="white"/>
<path d="M20.6393 13.7012C20.5748 15.0183 20.6514 16.3629 20.4176 17.6461C19.8511 20.7585 18.0195 22.7854 15.0861 23.508C12.2465 24.2073 9.8343 23.2594 7.96744 20.9034C6.89893 19.5556 6.42919 17.9603 6.42011 16.2158C6.41003 14.4184 6.42011 12.6211 6.41608 10.8237C6.41507 10.2259 6.59249 9.70969 6.96243 9.25162C8.18214 7.74304 9.58633 6.50211 11.4048 5.86737C13.3261 5.1956 15.1658 5.46007 16.9187 6.47567C18.1485 7.1887 19.1737 8.16091 20.0668 9.29499C20.4135 9.73508 20.5809 10.2312 20.5789 10.7972C20.5768 11.7641 20.5789 12.7311 20.5789 13.698C20.599 13.698 20.6192 13.7001 20.6393 13.7012ZM19.2795 15.1484C19.2795 14.6036 19.2997 14.0577 19.2694 13.515C19.2573 13.3087 19.1747 13.0622 19.0426 12.913C17.5639 11.2415 15.7081 10.2249 13.6547 9.56476C13.5741 9.53937 13.4743 9.53196 13.3957 9.55735C11.2919 10.2323 9.39077 11.269 7.87772 12.9892C7.80413 13.0728 7.72349 13.1944 7.7245 13.2971C7.74063 14.63 7.662 15.9767 7.82026 17.2917C8.13981 19.9449 10.3313 22.0787 12.8302 22.3326C15.5165 22.6066 17.958 21.0431 18.8955 18.4871C19.2946 17.3996 19.2896 16.2782 19.2775 15.1484H19.2795ZM7.75373 11.1929C10.1841 9.0284 13.0126 7.97789 16.1083 7.59916C14.8936 6.90094 13.6164 6.66715 12.2798 7.01203C10.5056 7.46904 9.16699 8.62533 8.00171 10.0472C7.72954 10.3793 7.67309 10.7274 7.75373 11.1929ZM16.1022 8.98185C17.1879 9.70969 18.2251 10.4058 19.2634 11.103C19.3249 10.7158 19.2755 10.3413 18.964 10.0218C18.6586 9.70863 18.3824 9.36587 18.082 9.04744C18.0074 8.9681 17.8864 8.88558 17.7886 8.88875C17.2332 8.90568 16.6798 8.948 16.1022 8.98185Z" fill="white"/>
<path d="M10.9542 17.6853H12.1709C12.4592 18.648 12.8675 19.0236 13.5751 18.9886C14.2051 18.958 14.6275 18.5221 14.7999 17.6959H16.0418C16.0629 19.1241 14.9138 20.3269 13.5187 20.3533C12.1377 20.3798 10.9391 19.1442 10.9542 17.6853Z" fill="white"/>
<path d="M10.921 14.2835C10.9169 14.6403 10.6055 14.9558 10.2668 14.9462C9.92 14.9356 9.63977 14.6181 9.65288 14.2507C9.66598 13.9014 9.95024 13.6082 10.2789 13.605C10.6135 13.6029 10.925 13.931 10.921 14.2835Z" fill="white"/>
<path d="M17.3451 14.2634C17.3522 14.6296 17.0639 14.944 16.7181 14.9461C16.3784 14.9483 16.073 14.6275 16.077 14.2708C16.08 13.932 16.3683 13.6219 16.6929 13.607C17.0326 13.5912 17.3391 13.9003 17.3461 14.2634H17.3451Z" fill="white"/>
</g>
<defs>
<clipPath id="clip0_64_612">
<rect width="27" height="41.8297" fill="white" transform="translate(0 0.10083)"/>
</clipPath>
</defs>
</svg>
