<svg width="39" height="43" viewBox="0 0 39 43" fill="none" xmlns="http://www.w3.org/2000/svg">
<g clip-path="url(#clip0_64_590)">
<path d="M0 39.9923C0 29.4848 0 18.9765 0 8.46815C0.0156882 8.44743 0.0400048 8.42843 0.0462801 8.40426C0.539673 6.43918 1.6151 5.53693 3.46787 5.53693C13.4652 5.53693 23.4617 5.53693 33.4589 5.53693C33.619 5.53693 33.7798 5.53693 33.9704 5.53693C33.9704 5.3349 33.9704 5.18467 33.9704 5.03358C33.9704 3.69273 33.9821 2.35188 33.9633 1.0119C33.9578 0.592287 34.037 0.250384 34.3539 0C35.0136 0 35.6741 0 36.3338 0C36.3777 0.024175 36.4193 0.0578473 36.4656 0.0707982C38.0548 0.492997 38.9976 1.79931 38.9984 3.60639C39.0008 13.6666 39.0008 23.726 38.9945 33.7863C38.9945 34.1446 38.9561 34.515 38.8698 34.8603C38.4768 36.4326 37.2547 37.3901 35.667 37.3901C25.6258 37.3909 15.5854 37.3901 5.5442 37.3901C5.38339 37.3901 5.22259 37.3901 5.02963 37.3901C5.02963 37.5886 5.02963 37.7397 5.02963 37.89C5.02963 39.3007 5.03276 40.7124 5.02806 42.1232C5.02649 42.6637 4.7943 42.9166 4.30483 42.9244C3.88596 42.9304 3.46708 42.9339 3.04821 42.9209C1.71942 42.8812 0.549086 41.9004 0.148253 40.5017C0.0996199 40.3316 0.0494177 40.1615 0 39.9915L0 39.9923ZM5.04061 22.8523C5.38183 22.8523 5.68931 22.8911 5.98582 22.8445C6.84318 22.7107 7.45188 23.0793 8.04881 23.7588C8.59319 24.3787 8.93755 24.9797 8.81204 25.8491C8.65438 26.9387 8.92343 27.8271 9.76824 28.4971C9.9361 28.6301 10.0294 28.9694 10.0475 29.2224C10.0875 29.806 10.093 30.3983 10.0459 30.9802C10.024 31.2582 9.90394 31.5725 9.73764 31.7832C9.33916 32.2883 8.8544 32.7122 8.46533 33.2242C8.03312 33.7932 7.52875 34.0064 6.86436 33.946C6.26507 33.8916 5.65872 33.9348 5.05002 33.9348V35.9965C5.23122 35.9965 5.39281 35.9965 5.55361 35.9965C15.5548 35.9965 25.556 35.9965 35.5572 35.9965C35.6969 35.9965 35.8365 35.9983 35.9761 35.9888C36.9817 35.9188 37.7449 35.0149 37.7355 33.908C37.7261 32.7865 36.9276 31.8885 35.9055 31.8574C35.5761 31.8471 35.2458 31.854 34.9156 31.854C34.1429 31.854 33.9696 31.6658 33.9696 30.83C33.9696 23.0491 33.9696 15.2674 33.9696 7.48647V6.96585H20.1216C20.1216 7.31811 20.0997 7.63929 20.1271 7.95616C20.1664 8.41462 20.0471 8.79106 19.7067 9.05353C18.9913 9.6061 18.7395 10.3521 18.8736 11.288C18.949 11.8121 18.7113 12.1773 18.4195 12.5883C17.6853 13.6217 16.7934 14.0016 15.6129 13.8695C15.0583 13.8074 14.5939 13.7279 14.2637 13.2151C13.8581 12.5857 13.3161 12.337 12.6274 12.4717C12.458 12.5045 12.2391 12.4734 12.1277 12.5788C11.7175 12.9682 11.3425 13.4033 10.9354 13.841C11.4147 14.3643 11.8744 14.827 12.2862 15.3364C12.4391 15.5247 12.545 15.8165 12.5615 16.0695C12.6007 16.6669 12.6015 17.2722 12.5615 17.8696C12.5443 18.1226 12.436 18.4162 12.2807 18.6018C11.7481 19.239 11.1919 19.8537 10.6115 20.4374C10.4334 20.6169 10.1542 20.7395 9.911 20.7629C9.39407 20.8112 8.86852 20.8138 8.35238 20.7629C8.09823 20.7378 7.81428 20.6049 7.62053 20.4227C7.19695 20.0255 6.78121 19.5999 6.43764 19.1207C6.03445 18.5586 5.54341 18.7037 5.04061 18.7192V22.8531V22.8523ZM18.8423 6.93045C18.6611 6.93045 18.5105 6.93045 18.3591 6.93045C13.3859 6.93045 8.41278 6.93045 3.43963 6.93045C3.31256 6.93045 3.18548 6.92786 3.05919 6.93563C2.03005 6.99434 1.25427 7.89572 1.26368 9.01899C1.27388 10.1388 2.07162 11.0367 3.09292 11.0696C3.42237 11.0799 3.75261 11.073 4.08206 11.0739C4.85549 11.0739 5.02963 11.2612 5.02963 12.0961C5.02963 13.6744 5.02963 15.2518 5.02963 16.8301C5.02963 16.9786 5.02963 17.128 5.02963 17.3093C5.40928 17.3093 5.73795 17.3231 6.06583 17.3058C6.40862 17.2877 6.67139 17.4181 6.90672 17.6944C7.28794 18.1433 7.7076 18.5517 8.08176 19.0067C8.31394 19.2882 8.56809 19.3581 8.9046 19.3978C9.57919 19.4781 10.0828 19.245 10.4726 18.6553C10.5173 18.588 10.5715 18.5249 10.6327 18.4766C11.2272 18.013 11.4649 17.3835 11.3221 16.6013C11.2806 16.3742 11.21 16.1178 11.0751 15.9529C10.6585 15.4461 10.2028 14.9781 9.7651 14.4929C9.31171 13.9904 9.31563 13.6969 9.77843 13.1857C10.1189 12.8093 10.4562 12.4303 10.8013 12.0599C11.9057 10.8753 11.4202 11.1438 12.9718 11.0566C13.7773 11.0117 14.4135 11.212 14.8834 11.9433C15.1767 12.4 15.5729 12.5598 16.0678 12.4752C16.3016 12.4354 16.6098 12.5209 16.7612 12.3836C17.2389 11.9528 17.7645 11.5254 17.6131 10.6758C17.4562 9.79087 17.7198 9.0518 18.4077 8.53895C18.9403 8.14179 18.927 7.58404 18.8415 6.93131L18.8423 6.93045ZM37.741 31.1555C37.741 30.8879 37.741 30.7221 37.741 30.5554C37.741 27.4403 37.741 24.3243 37.741 21.2092C37.741 15.3692 37.7253 9.52926 37.752 3.69014C37.7591 2.19043 36.7213 1.11205 35.2505 1.44618V30.4501C36.1228 30.4277 36.948 30.5235 37.741 31.1555ZM1.25898 11.768C1.25898 12.0374 1.25898 12.2032 1.25898 12.369C1.25898 14.5067 1.25898 16.6445 1.25898 18.7814C1.25898 25.5996 1.27309 32.4178 1.24799 39.2351C1.2425 40.7262 2.27322 41.8141 3.74947 41.4799V12.476C2.87643 12.4993 2.05201 12.4018 1.25898 11.768ZM5.05551 24.2302V32.5369C5.21867 32.5369 5.35594 32.5378 5.494 32.5369C6.08936 32.5326 6.75768 32.7122 7.26127 32.4722C7.7931 32.2183 8.16804 31.5665 8.60888 31.0847C8.67948 31.007 8.79322 30.9103 8.7893 30.8274C8.76027 30.1661 9.05678 29.4218 8.39787 28.9098C7.69269 28.3624 7.40246 27.6165 7.54287 26.6702C7.56719 26.507 7.52561 26.3317 7.54993 26.1694C7.65504 25.4692 7.44247 24.9227 6.92005 24.5195C6.78199 24.4133 6.63688 24.2561 6.48706 24.244C6.0219 24.2078 5.55283 24.2311 5.05708 24.2311L5.05551 24.2302Z" fill="white"/>
<path d="M18.2312 28.0586C18.2273 28.802 17.9449 29.7431 17.4044 30.5866C16.6302 31.7953 15.8482 32.9972 15.063 34.1973C14.6904 34.7671 14.2425 34.7645 13.8707 34.193C13.0651 32.9575 12.247 31.7323 11.4696 30.4752C10.4491 28.8244 10.4373 26.7661 11.3974 25.2897C12.3599 23.809 14.0989 23.1778 15.6489 23.7468C17.2154 24.3218 18.2602 25.9459 18.2312 28.0594V28.0586ZM14.4417 32.7304C14.521 32.6328 14.5657 32.5871 14.6002 32.5335C15.2042 31.6011 15.8231 30.6798 16.402 29.7292C16.6098 29.3882 16.7738 28.9919 16.871 28.5956C17.1495 27.4551 16.9487 26.4207 16.1219 25.6212C15.3736 24.8977 14.4959 24.7259 13.5632 25.1187C12.0744 25.7473 11.4696 27.6631 12.3278 29.32C12.9388 30.5002 13.7169 31.5752 14.4417 32.7304Z" fill="white"/>
<path d="M27.6716 20.0498H26.4354V15.1517C24.3567 14.2055 24.0327 11.1102 25.2266 9.38946C26.2322 7.93897 27.9155 7.95537 28.8953 9.42832C29.8295 10.8339 29.7856 12.951 28.776 14.2581C28.5901 14.4982 28.3689 14.758 28.1132 14.8677C27.6928 15.049 27.6598 15.3555 27.6645 15.7734C27.6818 17.1816 27.6716 18.5898 27.6716 20.0489V20.0498ZM26.444 13.5208V12.5046H27.6881V13.4586C28.485 12.8249 28.5713 10.6276 27.5327 9.86692C27.1821 9.61049 26.7828 9.65193 26.4448 9.96189C25.6196 10.7182 25.5764 12.6211 26.4448 13.5208H26.444Z" fill="white"/>
<path d="M22.0042 17.2324V20.0471H20.79C20.7798 19.921 20.7617 19.801 20.7617 19.681C20.7586 19.1086 20.7335 18.5335 20.7688 17.9637C20.7994 17.4724 20.7068 17.1953 20.2393 16.9622C19.1482 16.4182 18.6509 15.0618 18.9686 13.7918C19.2729 12.5753 20.3507 11.7067 21.4747 11.7715C22.6874 11.8414 23.6507 12.7661 23.8578 14.0603C24.0617 15.3364 23.446 16.578 22.3556 17.083C22.2513 17.1314 22.1438 17.1728 22.005 17.2324H22.0042ZM22.034 14.5343V15.7008C22.5941 15.2492 22.7682 14.6517 22.558 14.0482C22.3494 13.4499 21.816 13.095 21.2331 13.1658C20.6848 13.2323 20.244 13.7055 20.1444 14.334C20.0589 14.8719 20.3021 15.4167 20.7609 15.6481C20.7609 15.3545 20.7437 15.0774 20.7703 14.8046C20.7798 14.7079 20.8935 14.5524 20.968 14.5464C21.3045 14.5188 21.6442 14.5343 22.0348 14.5343H22.034Z" fill="white"/>
<path d="M25.7921 34.6048H24.5567V33.2302C24.9073 33.2302 25.2572 33.2199 25.6054 33.2397C25.6705 33.2432 25.7804 33.3624 25.7835 33.4333C25.8015 33.8177 25.7921 34.203 25.7921 34.6056V34.6048Z" fill="white"/>
<path d="M19.5137 34.6056V33.2561H20.7351V34.6056H19.5137Z" fill="white"/>
<path d="M23.2514 34.6038H22.0427V33.2578H23.2514V34.6038Z" fill="white"/>
<path d="M29.7895 22.8271H28.5038V21.4932H29.693C29.7244 21.9269 29.7557 22.3632 29.7895 22.8271Z" fill="white"/>
<path d="M21.8842 22.1746C22.1956 22.5976 22.4466 22.9378 22.6945 23.2745C22.5008 23.5569 22.3211 23.8193 22.1219 24.1103C21.7634 23.9462 21.3963 23.7779 20.9421 23.5707C21.263 23.0949 21.5555 22.6615 21.8842 22.1754V22.1746Z" fill="white"/>
<path d="M28.0442 27.6035C28.4364 27.9912 28.7886 28.3391 29.14 28.6862C29.1102 28.7458 29.0804 28.8054 29.0506 28.8649C28.7109 29.0911 28.3713 29.3182 28.0748 29.5151C27.8277 29.2362 27.6096 28.9901 27.3704 28.7199C27.5602 28.4056 27.7759 28.0473 28.0442 27.6035Z" fill="white"/>
<path d="M31.3049 22.361C31.0343 21.8991 30.8233 21.5391 30.6092 21.1738C30.8194 20.9226 31.0218 20.6808 31.2555 20.4028C31.5889 20.6031 31.9372 20.8121 32.3757 21.0763C32.0109 21.5132 31.6799 21.9103 31.3042 22.361H31.3049Z" fill="white"/>
<path d="M20.7115 25.3103C21.1986 25.2499 21.583 25.2016 21.9815 25.1523C22.0913 25.4701 22.1972 25.7757 22.3211 26.1314C22.0121 26.3689 21.6865 26.6184 21.2716 26.9361C21.0786 26.3766 20.9068 25.8759 20.7115 25.3103Z" fill="white"/>
<path d="M29.6028 30.4397C29.5345 31.0285 29.4734 31.5526 29.4067 32.1285C28.9494 31.9455 28.5752 31.7952 28.2081 31.6476C28.2544 31.2858 28.296 30.9586 28.343 30.5856C28.7187 30.5424 29.1047 30.4975 29.6028 30.4397Z" fill="white"/>
<path d="M23.5581 22.8273C23.4915 22.3954 23.4271 21.9755 23.355 21.5063H24.6893V22.8273H23.5581Z" fill="white"/>
<path d="M25.9882 22.8211V21.488H27.1939V22.8211H25.9882Z" fill="white"/>
<path d="M23.9739 28.4446C23.4695 28.3228 23.0028 28.2097 22.4733 28.0819C22.6874 27.6071 22.8592 27.2272 23.0357 26.8352C23.3526 26.9051 23.6546 26.9725 23.9739 27.0433V28.4446Z" fill="white"/>
<path d="M26.4189 28.3744H25.2776V27.0327H26.5914C26.531 27.5044 26.4746 27.939 26.4189 28.3744Z" fill="white"/>
<path d="M18.2383 34.5988H17.0115V33.2294C17.355 33.2294 17.6939 33.2165 18.0304 33.2398C18.1034 33.245 18.2242 33.3754 18.2289 33.4549C18.25 33.8273 18.2383 34.2014 18.2383 34.5979V34.5988Z" fill="white"/>
<path d="M28.4905 33.6187C28.1163 33.876 27.7179 34.1515 27.2613 34.4657C27.1045 33.9745 26.9735 33.5643 26.8393 33.1447C27.1123 32.9565 27.3657 32.7812 27.6057 32.6155C27.8763 32.9228 28.154 33.238 28.4897 33.6196L28.4905 33.6187Z" fill="white"/>
<path d="M31.4673 19.3572V18.0405H32.6706V19.3572H31.4673Z" fill="white"/>
<path d="M13.8597 27.6615V26.3491H15.0708V27.6615H13.8597Z" fill="white"/>
</g>
<defs>
<clipPath id="clip0_64_590">
<rect width="39" height="42.9304" fill="white"/>
</clipPath>
</defs>
</svg>
