<svg width="33" height="32" viewBox="0 0 33 32" fill="none" xmlns="http://www.w3.org/2000/svg">
<path d="M16.6663 2.66663C20.289 2.66663 20.741 2.67996 22.1623 2.74663C23.5823 2.81329 24.549 3.03596 25.3997 3.36663C26.2797 3.70529 27.021 4.16396 27.7623 4.90396C28.4403 5.57049 28.9649 6.37674 29.2997 7.26663C29.629 8.11596 29.853 9.08396 29.9197 10.504C29.9823 11.9253 29.9997 12.3773 29.9997 16C29.9997 19.6226 29.9863 20.0746 29.9197 21.496C29.853 22.916 29.629 23.8826 29.2997 24.7333C28.9659 25.6237 28.4412 26.4301 27.7623 27.096C27.0956 27.7737 26.2894 28.2983 25.3997 28.6333C24.5503 28.9626 23.5823 29.1866 22.1623 29.2533C20.741 29.316 20.289 29.3333 16.6663 29.3333C13.0437 29.3333 12.5917 29.32 11.1703 29.2533C9.75034 29.1866 8.78367 28.9626 7.93301 28.6333C7.04278 28.2993 6.23638 27.7746 5.57034 27.096C4.89222 26.4295 4.36758 25.6233 4.03301 24.7333C3.70234 23.884 3.47967 22.916 3.41301 21.496C3.35034 20.0746 3.33301 19.6226 3.33301 16C3.33301 12.3773 3.34634 11.9253 3.41301 10.504C3.47967 9.08263 3.70234 8.11729 4.03301 7.26663C4.36666 6.3762 4.89141 5.56972 5.57034 4.90396C6.23657 4.2256 7.04291 3.70093 7.93301 3.36663C8.78367 3.03596 9.74901 2.81329 11.1703 2.74663C12.5917 2.68396 13.0437 2.66663 16.6663 2.66663ZM16.6663 9.33329C14.8982 9.33329 13.2025 10.0357 11.9523 11.2859C10.7021 12.5362 9.99967 14.2318 9.99967 16C9.99967 17.7681 10.7021 19.4638 11.9523 20.714C13.2025 21.9642 14.8982 22.6666 16.6663 22.6666C18.4345 22.6666 20.1301 21.9642 21.3804 20.714C22.6306 19.4638 23.333 17.7681 23.333 16C23.333 14.2318 22.6306 12.5362 21.3804 11.2859C20.1301 10.0357 18.4345 9.33329 16.6663 9.33329ZM25.333 8.99996C25.333 8.55793 25.1574 8.13401 24.8449 7.82145C24.5323 7.50889 24.1084 7.33329 23.6663 7.33329C23.2243 7.33329 22.8004 7.50889 22.4878 7.82145C22.1753 8.13401 21.9997 8.55793 21.9997 8.99996C21.9997 9.44199 22.1753 9.86591 22.4878 10.1785C22.8004 10.491 23.2243 10.6666 23.6663 10.6666C24.1084 10.6666 24.5323 10.491 24.8449 10.1785C25.1574 9.86591 25.333 9.44199 25.333 8.99996ZM16.6663 12C17.7272 12 18.7446 12.4214 19.4948 13.1715C20.2449 13.9217 20.6663 14.9391 20.6663 16C20.6663 17.0608 20.2449 18.0782 19.4948 18.8284C18.7446 19.5785 17.7272 20 16.6663 20C15.6055 20 14.5881 19.5785 13.8379 18.8284C13.0878 18.0782 12.6663 17.0608 12.6663 16C12.6663 14.9391 13.0878 13.9217 13.8379 13.1715C14.5881 12.4214 15.6055 12 16.6663 12Z" fill="#6B6B6B"/>
</svg>
