<svg width="155" height="23" viewBox="0 0 155 23" fill="none" xmlns="http://www.w3.org/2000/svg">
<path d="M11.1092 22.3793C4.31053 22.3793 0.0504349 17.5065 0.0504349 11.2622C0.0504349 5.01797 4.31053 0.232655 11.1092 0.232655C15.7486 0.232655 18.5789 2.15845 20.5047 4.81372L17.2367 7.1772C16.0112 5.42647 13.7936 4.11343 11.1092 4.11343C7.40348 4.11343 4.36889 6.82705 4.36889 11.2622C4.36889 15.6974 7.40348 18.4402 11.1092 18.4402C13.9687 18.4402 16.0696 17.3022 17.5577 15.0846L20.5923 17.4189C18.8415 20.2493 15.9237 22.3793 11.1092 22.3793ZM30.6961 11.7291C29.9374 11.4665 29.2663 11.3789 28.4785 11.3789C27.9533 11.3789 27.5156 11.4081 27.1071 11.5832V22H23.3431V8.89874C24.481 8.31517 26.436 7.90667 28.3326 7.90667C29.1496 7.90667 30.6086 7.9942 31.4839 8.31517L30.6961 11.7291ZM39.948 11.3206C38.1098 11.3206 36.2423 12.6044 36.2423 15.2014C36.2423 17.7983 37.9931 19.0821 39.948 19.0821C41.9322 19.0821 43.6537 17.7983 43.6537 15.2014C43.6537 12.6044 41.7863 11.3206 39.948 11.3206ZM32.5366 15.2014C32.5366 10.9121 35.367 7.93584 39.948 7.93584C44.5291 7.93584 47.3886 10.9121 47.3886 15.2014C47.3886 19.5198 44.5875 22.496 39.948 22.496C35.3378 22.496 32.5366 19.5198 32.5366 15.2014ZM62.3908 8.28599L63.9081 15.6974L64.4042 18.6444L65.1045 15.6974L67.1178 8.28599H71.3195L66.6801 22H62.2741L60.9902 17.3314L60.2024 13.1588L59.4146 17.3314L58.1307 22H53.7247L49.0853 8.28599H53.2871L55.3004 15.6974L56.0007 18.6444L56.4967 15.6974L58.014 8.28599H62.3908ZM77.5145 22H73.7505V9.10299C75.2678 8.22763 78.0106 7.90667 79.7029 7.90667C85.5387 7.90667 87.3186 10.8245 87.3478 14.0926C87.3769 16.8645 87.3769 19.228 87.3478 22H83.5545C83.5837 19.5198 83.5837 17.1855 83.5545 14.7053C83.5254 12.4294 82.3874 11.4373 80.0823 11.4373C79.0026 11.4373 77.9522 11.6124 77.5145 11.875V22ZM112.427 0.611979V4.43439H106.183V22H101.806V4.43439H95.5618V0.611979H112.427ZM119.249 11.3206C117.411 11.3206 115.544 12.6044 115.544 15.2014C115.544 17.7983 117.294 19.0821 119.249 19.0821C121.233 19.0821 122.955 17.7983 122.955 15.2014C122.955 12.6044 121.088 11.3206 119.249 11.3206ZM111.838 15.2014C111.838 10.9121 114.668 7.93584 119.249 7.93584C123.83 7.93584 126.69 10.9121 126.69 15.2014C126.69 19.5198 123.889 22.496 119.249 22.496C114.639 22.496 111.838 19.5198 111.838 15.2014ZM139.059 8.28599H142.823V21.183C141.306 22.0584 138.592 22.3793 136.9 22.3793C131.093 22.3793 129.313 19.4614 129.284 16.1934C129.255 13.4214 129.255 11.058 129.284 8.28599H133.077C133.048 10.7662 133.048 13.1005 133.077 15.5807C133.107 17.8566 134.215 18.8487 136.521 18.8487C137.6 18.8487 138.592 18.6736 139.059 18.411V8.28599ZM153.338 11.7291C152.579 11.4665 151.908 11.3789 151.12 11.3789C150.595 11.3789 150.158 11.4081 149.749 11.5832V22H145.985V8.89874C147.123 8.31517 149.078 7.90667 150.975 7.90667C151.792 7.90667 153.25 7.9942 154.126 8.31517L153.338 11.7291Z" fill="#0089D7"/>
</svg>
