<svg xmlns="http://www.w3.org/2000/svg" xmlns:xlink="http://www.w3.org/1999/xlink" viewBox="0 0 932.06 899.23"><defs><style>.cls-1{fill:url(#Безымянный_градиент_7);}.cls-2{fill:url(#Безымянный_градиент_7-2);}.cls-3{fill:url(#Безымянный_градиент_7-3);}.cls-4{fill:url(#Безымянный_градиент_7-4);}.cls-5{fill:url(#Безымянный_градиент_7-5);}.cls-6{fill:url(#Безымянный_градиент_7-6);}.cls-7{fill:url(#Безымянный_градиент_7-7);}.cls-8{fill:url(#Безымянный_градиент_7-8);}.cls-9{fill:none;stroke:#000;stroke-miterlimit:10;}.cls-10{fill:url(#Безымянный_градиент_7-9);}.cls-11{fill:#047cc1;}</style><linearGradient id="Безымянный_градиент_7" x1="473.13" y1="12.81" x2="464.49" y2="997.77" gradientUnits="userSpaceOnUse"><stop offset="0" stop-color="#2d296a"/><stop offset="1" stop-color="#1b8fcf"/></linearGradient><linearGradient id="Безымянный_градиент_7-2" x1="219.6" y1="515.5" x2="218.44" y2="648.33" xlink:href="#Безымянный_градиент_7"/><linearGradient id="Безымянный_градиент_7-3" x1="425.48" y1="514.77" x2="424.31" y2="647.61" xlink:href="#Безымянный_градиент_7"/><linearGradient id="Безымянный_градиент_7-4" x1="325.94" y1="517.58" x2="324.82" y2="645.05" xlink:href="#Безымянный_градиент_7"/><linearGradient id="Безымянный_градиент_7-5" x1="579.84" y1="518.76" x2="578.73" y2="644.9" xlink:href="#Безымянный_градиент_7"/><linearGradient id="Безымянный_градиент_7-6" x1="730.33" y1="517.36" x2="729.21" y2="645.15" xlink:href="#Безымянный_градиент_7"/><linearGradient id="Безымянный_градиент_7-7" x1="280.58" y1="681.7" x2="279.12" y2="847.96" xlink:href="#Безымянный_градиент_7"/><linearGradient id="Безымянный_градиент_7-8" x1="459.81" y1="679.37" x2="458.29" y2="852.65" xlink:href="#Безымянный_градиент_7"/><linearGradient id="Безымянный_градиент_7-9" x1="660.75" y1="682.78" x2="659.3" y2="848.55" xlink:href="#Безымянный_градиент_7"/></defs><g id="Слой_2" data-name="Слой 2"><g id="Слой_1-2" data-name="Слой 1"><path class="cls-1" d="M467.91,0l-6.67,8.45c-3.83,4.86-8.14,9.52-11.51,14.71-3.23,5-5.76,11.33-2.8,17s9.88,8.43,15.73,10.07a153.72,153.72,0,0,1-1.38,25.64,99,99,0,0,1-4.74,20.75c-2.79,7.73-7.72,14.24-13.23,20.29-11.73,12.91-25.4,24.17-39.46,34.44q-13.75,10-28.41,18.82c-33.6,20.16-83.52,42-83.52,42s-64.8,27.36-111.6,58.56S94.7,341,79.19,388.88,61.76,497.75,77.36,580.43s51.33,198.42,51.33,198.42,28.36,65.94-38.25,89.28C44.72,884.15,9.26,848,3.68,796.49c0,0-15.63,48.33,17.51,82s87.37,19.07,107.89,6.23,43.2-41.28,43.86-80.88c0,0-1.38-33.24-17.1-79.44S125.24,617,120.68,561.59c-4.93-60-5.77-144.75,45.72-199.08,55.66-58.73,189.69-94.24,222.78-149.25l1.48,0s.56,16.19-20.5,40.67-43.74,46.44-59.67,78.39-20,55.47-18.81,81.63,9,51.9,21.68,78.75c0,0-5.93-73.59,30.12-132.21s58.36-70.11,101.2-157c0,0-25.92,72,3.78,183.38,0,0,13.26,46.77,17.16,87.87,0,0,5.34-48.42,17.22-89.34s25.16-108.78,3.4-181.77c0,0,19.4,45.69,59.84,98.49s69.06,80,71.85,189.87c0,0,54.51-92.79-9.69-179.91s-65-68-67.14-99.34c0,0,29.82,40.54,84.84,64.6s161.7,67.74,178.2,161.82,13.14,164.64-36.54,310.56a164.85,164.85,0,0,0-7.29,71.34c4.09,32.53,26.77,58.63,56.68,70.7a99.48,99.48,0,0,0,24.85,6.54c18.36,2.3,37.54-1,53.57-10.21A73.89,73.89,0,0,0,925.75,855c7.15-15.77,7.24-35.22,5.06-52.13-.24-1.85-.52-3.69-.82-5.53,0,0-3.81,73.47-62.13,74s-76.32-51.48-61.29-92.07c0,0,22.23-60.51,47.25-176.19S890,367.55,778.76,286.37,460.25,168.56,473.53,50.43a20.94,20.94,0,0,1,2.62-.94,37.28,37.28,0,0,0,5.92-3c4.65-2.93,8.86-7.41,8.42-13.29a18.26,18.26,0,0,0-3.83-9.1C483,19,478.84,14.21,475,9.22Z"/><path class="cls-2" d="M282.25,602.9c-8.59,26.41-32.95,45.45-61.67,45.45-35.89,0-65-29.74-65-66.42s29.09-66.42,65-66.42c28.17,0,52.16,18.33,61.17,44H258c-7.24-14.06-21-23.56-36.9-23.56-23.35,0-42.29,20.63-42.29,46.08s18.94,46.08,42.29,46.08c16.45,0,30.7-10.23,37.7-25.17Z"/><path class="cls-3" d="M424.89,514.77c-35.88,0-65,29.73-65,66.42s29.1,66.42,65,66.42,65-29.74,65-66.42S460.78,514.77,424.89,514.77Zm.56,112.56c-23.36,0-42.29-20.63-42.29-46.08s18.93-46.08,42.29-46.08,42.28,20.63,42.28,46.08S448.8,627.33,425.45,627.33Z"/><path class="cls-4" d="M320.65,536.5l-.21-17H301.18V644.84H322l-.95-76.1c1.27-9.9,6.67-29.41,29.42-29.32V517.88S332.93,515.27,320.65,536.5Z"/><polygon class="cls-5" points="498.26 519.48 541.32 644.57 553.07 644.57 578.96 557.31 605.96 644.57 618.02 644.57 661.4 519.48 638.72 519.48 611.9 603.71 585.98 519.48 573.02 519.48 547.1 604.43 520.64 519.48 498.26 519.48"/><path class="cls-6" d="M750.14,519.44c-28.58-7.3-46.87,6.57-53.82,16.93V519.44H676.1V644.69h20.22V586.55c.22-.08.16-10,.23-10.71.68-7.64,2.35-15.42,6-22.22,9.35-17.47,35.71-22.19,49.93-7.44,4.71,4.88,7.34,11.46,8.55,18.13,2.08,11.55,1,23.65.91,35.32-.1,13.52-.21,27-.25,40.57,0,.22,0,4.37,0,4.37h21.76V571.91S786.2,528.65,750.14,519.44Z"/><polygon class="cls-7" points="341.72 682.23 295.88 682.23 282.86 682.23 265.4 682.23 219.26 682.23 219.26 702.57 262.43 702.57 265.61 702.57 265.27 847.83 295.88 847.83 295.88 702.57 341.72 702.57 341.72 682.23"/><path class="cls-8" d="M580.1,791.18V682.28H554.54l-.18,108.9s1,20.61-7.44,29.07c-8,8-13.78,10.55-26.1,10.58H517a51.32,51.32,0,0,1-11-.87c20.22-15.85,32.92-38.71,32.92-64.12,0-34.27-23.1-63.9-56.61-77.94v-5.61H465a115.24,115.24,0,0,0-26.67-3.09c-55.54,0-100.56,38.79-100.56,86.64s45,86.64,100.56,86.64a113.45,113.45,0,0,0,44.23-8.82c12.84,7,28.36,7.46,33.59,7.38h6.3c8.72-.09,31.13-1.83,43.08-16.56C580.58,815.93,580.1,799.91,580.1,791.18ZM438.76,829.43c-40.52,0-73.37-28.74-73.37-64.2S398.24,701,438.76,701A83.65,83.65,0,0,1,456.7,703v88.22c0,7.24-.33,19.51,8.16,34.07A82.6,82.6,0,0,1,438.76,829.43ZM486,814.34c-4.24-9.63-3.57-23.16-3.57-23.16l-.13-77.62c18.08,11.69,29.81,30.48,29.81,51.67C512.12,784.93,502,802.56,486,814.34Z"/><path class="cls-9" d="M519.73,830.82h0Z"/><path class="cls-9" d="M518,830.81h0Z"/><path class="cls-9" d="M520.82,830.82h0Z"/><path class="cls-9" d="M522.44,851h0Z"/><path class="cls-10" d="M603.4,682.28V848.06h23.17V702.41H650.2s45.16-1.08,45,32.61-32.85,33.48-32.85,33.48l-33.93.72,59.4,78.84h28.8l-50.85-65.25s53.19-.9,51.57-49.5-49.62-49.8-49.62-49.8Z"/><path class="cls-11" d="M467.92,152.34s-18.68,105.17,0,215.69C467.9,368,484.79,254.3,467.92,152.34Z"/><path class="cls-11" d="M392.48,177.42S337,222.83,292.76,248,129,334.25,106.46,411.92c0,0,2.34-67.77,86.58-118.89S346.4,210.14,392.48,177.42Z"/><path class="cls-11" d="M540.17,177.68s55.44,45.41,99.72,70.61,163.8,86.22,186.3,163.89c0,0-2.34-67.77-86.58-118.89S586.25,210.4,540.17,177.68Z"/><path class="cls-11" d="M443.12,164.75s-14.52,43-60.42,96.78-76.63,96-70.05,128.61c0,0,14.55-59.07,52.05-95.19S429,211.91,443.12,164.75Z"/><path class="cls-11" d="M485.68,164.75s14.52,43,60.42,96.78,76.64,96,70,128.61c0,0-14.55-59.07-52-95.19S499.84,211.91,485.68,164.75Z"/></g></g></svg>