<svg width="141" height="143" viewBox="0 0 141 143" fill="none" xmlns="http://www.w3.org/2000/svg">
<g clip-path="url(#clip0_36_100)">
<path d="M105.917 118.952C105.795 120.97 104.361 122.095 102.9 121.688C101.495 121.296 100.106 120.795 98.7578 120.228C97.5518 119.722 97.0523 118.515 97.4015 117.349C97.7832 116.069 98.8593 115.318 100.207 115.665C101.714 116.052 103.233 116.534 104.605 117.247C105.287 117.602 105.645 118.576 105.917 118.947V118.952Z" fill="#0089D7"/>
<g clip-path="url(#clip1_36_100)">
<path d="M5 106.93C5.33504 106.352 5.69743 105.788 6.0017 105.193C15.3794 86.7619 24.7433 68.327 34.1244 49.8988C36.7261 44.7885 42.1893 43.9236 46.2576 47.9641C46.6439 48.3503 46.9174 48.846 47.3755 49.4715C47.7994 48.699 48.0285 48.3162 48.2268 47.9162C53.2455 37.8185 58.3121 27.7482 63.2386 17.606C64.5582 14.8919 66.2402 12.8101 69.2316 12.0034H71.7923C74.7974 12.7999 76.4692 14.8987 77.7854 17.6129C82.7015 27.7208 87.7545 37.7638 92.7561 47.8308C92.9647 48.2478 93.18 48.658 93.6518 49.5741C94.2672 48.7708 94.6775 48.0529 95.2552 47.5094C98.7936 44.1595 104.253 44.9628 106.554 49.2699C109.043 53.9256 111.382 58.6634 113.751 63.3807C114.499 64.871 114.031 66.3375 112.708 66.9972C111.385 67.657 109.963 67.1579 109.194 65.6607C106.992 61.3809 104.828 57.0841 102.643 52.7976C101.241 50.0424 100.103 49.851 97.9526 52.0045C96.9885 52.9685 96.0279 53.9393 95.0569 54.8964C93.1151 56.8141 91.3578 56.5098 90.1271 54.035C84.3631 42.4435 78.6059 30.8486 72.8487 19.2571C72.6777 18.9152 72.5239 18.5597 72.3256 18.235C71.4196 16.7515 69.5701 16.7309 68.712 18.2418C68.059 19.387 67.5154 20.5936 66.9274 21.7764C61.6044 32.4928 56.2848 43.2092 50.9652 53.9256C49.6627 56.544 47.9328 56.8414 45.8815 54.8041C44.9755 53.9017 44.073 52.9958 43.167 52.09C40.8901 49.8134 39.803 49.9945 38.3226 52.9069C31.3962 66.5358 24.4698 80.1646 17.54 93.7934C15.0888 98.6132 12.6238 103.43 10.1897 108.256C9.64609 109.336 9.0273 110.242 7.67005 110.297C6.31622 110.352 5.58461 109.528 5.00342 108.468C5.00342 107.955 5.00342 107.446 5.00342 106.933L5 106.93Z" fill="#0089D7"/>
<path d="M31.4611 98.0799C29.215 98.5927 27.1466 99.2045 25.0407 99.5019C23.4714 99.7241 22.3433 98.62 22.2304 97.1877C22.121 95.7965 23.1501 94.665 24.709 94.4565C29.15 93.8583 30.8594 92.1628 31.4782 87.7327C31.6936 86.1808 32.685 85.2066 34.0388 85.21C35.4063 85.2134 36.3738 86.1808 36.5721 87.7429C37.1225 92.0739 38.9208 93.848 43.3686 94.4565C44.9412 94.6719 45.9224 95.7726 45.8165 97.198C45.7105 98.6337 44.5925 99.7275 43.0097 99.5019C40.8969 99.2011 38.8285 98.5858 36.7499 98.1073C35.4234 104.708 39.2866 109.637 45.0438 110.242C45.3823 110.276 45.731 110.249 46.066 110.3C47.4575 110.523 48.3463 111.61 48.278 112.98C48.2096 114.331 47.1942 115.342 45.7652 115.363C43.0985 115.404 40.6336 114.672 38.3567 113.295C37.8507 112.987 37.3619 112.649 36.6576 112.187C36.5072 114.358 36.5379 116.347 37.1567 118.296C38.6747 123.081 42.8216 126.247 48.0352 126.568C49.0711 126.633 50.1241 126.79 50.5138 127.792C50.8078 128.544 50.8591 129.549 50.6164 130.308C50.2711 131.378 49.2181 131.737 48.1139 131.702C44.237 131.583 40.7772 130.321 37.7516 127.888C37.4576 127.652 37.1704 127.402 36.6542 126.975C36.6234 127.624 36.5858 128.052 36.5858 128.482C36.5824 132.15 36.5858 135.818 36.579 139.483C36.579 139.951 36.579 140.426 36.5106 140.884C36.3226 142.087 35.3345 142.945 34.1346 142.993C32.9448 143.041 31.8611 142.255 31.6013 141.075C31.485 140.542 31.4748 139.975 31.4713 139.424C31.4611 135.377 31.4645 131.33 31.4645 126.954C30.9551 127.365 30.6508 127.611 30.35 127.857C27.3346 130.308 23.8714 131.586 19.998 131.696C17.8168 131.757 16.463 129.843 17.3519 128.038C17.8852 126.958 18.8253 126.637 19.9843 126.572C24.4013 126.322 27.7654 124.292 29.991 120.456C31.4406 117.957 31.6149 115.219 31.3893 112.235C30.9483 112.519 30.6064 112.731 30.2714 112.953C27.9398 114.501 25.3825 115.336 22.5791 115.373C20.9587 115.394 19.8783 114.447 19.7997 113.004C19.7176 111.473 20.7228 110.403 22.3672 110.27C28.0936 109.808 31.4269 106.219 31.4611 100.483C31.4679 99.5942 31.4611 98.7021 31.4611 98.0833V98.0799Z" fill="#0089D7"/>
<path d="M97.6175 84.2187C95.4569 84.7349 93.4022 85.3741 91.2962 85.6817C89.6005 85.9279 88.4723 84.8579 88.3937 83.371C88.3082 81.8122 89.3202 80.7833 91.0945 80.6192C94.9645 80.2603 97.2996 77.9085 97.6141 74.0458C97.744 72.4597 98.7662 71.3932 100.161 71.3932C101.552 71.3932 102.595 72.4665 102.735 74.0424C103.084 77.97 105.337 80.2535 109.228 80.6158C110.971 80.7799 112.055 81.8703 111.956 83.3641C111.853 84.8853 110.698 85.9142 108.903 85.6749C107.241 85.4561 105.628 84.875 104.004 84.4204C103.617 84.311 103.269 84.0683 102.592 83.7333C102.759 85.9176 102.677 87.9002 103.108 89.7632C103.983 93.5644 107.498 96.2136 111.515 96.4323C113.354 96.5315 114.51 97.598 114.431 99.1225C114.352 100.664 113.152 101.611 111.289 101.543C108.629 101.447 106.195 100.623 103.973 99.1636C103.631 98.938 103.289 98.7055 102.732 98.3329C102.732 100.821 102.732 103.095 102.732 105.371C102.732 106.308 102.759 107.248 102.722 108.184C102.657 109.832 101.58 110.895 100.079 110.854C98.6295 110.813 97.6346 109.757 97.6243 108.15C97.6004 104.958 97.6175 101.761 97.6175 98.3466C97.1491 98.6406 96.8107 98.8422 96.4859 99.061C94.1372 100.668 91.5389 101.509 88.6945 101.546C87.0535 101.567 85.9083 100.517 85.8843 99.0473C85.8638 97.6458 86.9373 96.5725 88.4928 96.446C94.25 95.9777 97.6038 92.3338 97.6141 86.5397C97.6141 85.6886 97.6141 84.8374 97.6141 84.2119L97.6175 84.2187Z" fill="#0089D7"/>
<path d="M132.824 110.277C132.489 109.989 131.569 109.552 131.193 108.827C127.33 101.396 123.545 93.9233 119.771 86.4475C119.07 85.0596 119.576 83.5966 120.838 82.9471C122.116 82.2874 123.569 82.7181 124.294 84.1298C128.12 91.5818 131.925 99.0405 135.689 106.523C136.629 108.39 135.385 110.321 132.827 110.273L132.824 110.277Z" fill="#0089D7"/>
<path d="M73.6112 59.1386C73.6419 61.0972 71.2112 63.9618 69.7001 64.1703C68.5787 64.3241 67.6899 63.8798 67.1258 62.909C66.5583 61.9313 66.6471 60.9434 67.3514 60.0615C67.96 59.3026 68.6027 58.5643 69.2864 57.8704C70.0727 57.0739 71.0334 56.8415 72.083 57.2995C73.0676 57.7268 73.5838 58.5027 73.6077 59.1386H73.6112Z" fill="#0089D7"/>
<path d="M75.9667 101.519C76.794 101.943 77.4914 102.127 77.9393 102.565C78.7222 103.331 79.423 104.206 80.0213 105.122C80.7871 106.298 80.4555 107.703 79.3547 108.502C78.2812 109.285 76.8282 109.118 75.9188 108.068C75.2795 107.33 74.6641 106.571 74.0932 105.781C73.4881 104.951 73.365 103.97 73.9735 103.163C74.4658 102.51 75.259 102.083 75.9667 101.515V101.519Z" fill="#0089D7"/>
<path d="M65.5564 91.3014C66.3769 91.6193 66.9718 91.7013 67.3615 92.0295C68.2333 92.7644 69.0675 93.5643 69.7957 94.4394C70.6264 95.4375 70.4623 96.9177 69.5598 97.7928C68.6333 98.6884 67.2179 98.7943 66.206 97.9261C65.3718 97.2117 64.4521 96.4836 63.9257 95.5606C63.5257 94.8599 63.3923 93.7216 63.6795 92.9935C63.9633 92.2756 64.9308 91.8312 65.5564 91.3014Z" fill="#0089D7"/>
<path d="M58.8488 74.7534C58.1582 74.2133 57.3138 73.7894 56.8113 73.1092C56.1788 72.2546 56.3497 71.2086 57.0472 70.3984C57.7617 69.5644 58.5377 68.7645 59.3822 68.0637C60.336 67.2707 61.4163 67.2912 62.4351 68.009C63.365 68.6654 63.912 70.0361 63.259 70.9249C62.3291 72.1931 61.0779 73.2322 59.9223 74.3261C59.7411 74.497 59.3582 74.4526 59.0676 74.5073L58.8488 74.7534Z" fill="#0089D7"/>
<path d="M53.813 83.2103C54.0797 81.8942 54.8078 80.8516 55.8984 80.5918C57.0847 80.3115 58.1343 80.5918 58.7565 81.6925C59.2933 82.6463 59.7445 83.6615 60.1411 84.687C60.565 85.7945 60.0488 87.0456 59.03 87.6541C58.0625 88.2318 56.6403 88.1942 56.0078 87.2781C55.1395 86.0167 54.5309 84.5742 53.813 83.2069V83.2103Z" fill="#0089D7"/>
<path d="M82.3221 118.446C81.9871 119.256 81.5529 120.644 80.8589 121.888C80.2948 122.904 78.8384 123.123 77.7752 122.603C76.7017 122.076 76.1068 120.897 76.4385 119.711C76.7222 118.689 77.0949 117.684 77.5188 116.71C78.0042 115.592 79.1837 115.069 80.3871 115.336C81.5632 115.595 82.3426 116.604 82.3221 118.443V118.446Z" fill="#0089D7"/>
<path d="M73.9394 129.005C73.5736 129.819 73.43 130.424 73.0744 130.855C72.4317 131.637 71.6967 132.355 70.9309 133.025C69.8677 133.955 68.4386 133.89 67.4745 132.95C66.5036 132 66.3942 130.578 67.3173 129.501C68.0044 128.698 68.7668 127.949 69.5702 127.262C70.3805 126.568 71.4232 126.373 72.2813 126.995C72.965 127.491 73.4026 128.332 73.936 129.002L73.9394 129.005Z" fill="#0089D7"/>
<path d="M67.4231 47.4616C67.4709 46.084 68.623 44.9901 69.9974 45.0175C71.5358 45.0482 73.3888 47.0582 73.3307 48.6306C73.2794 49.9911 72.0931 51.126 70.7529 51.0884C69.2282 51.0474 67.3684 49.0203 67.4231 47.4616Z" fill="#0089D7"/>
<path d="M63.372 139.599C63.3446 141.123 61.4301 143.01 59.9224 143C58.4831 142.99 57.3686 141.8 57.4199 140.334C57.478 138.792 59.4096 136.96 60.9276 137.008C62.3224 137.052 63.3993 138.19 63.372 139.599Z" fill="#0089D7"/>
<path d="M119.34 74.9003C119.371 76.2506 118.226 77.4504 116.862 77.4983C115.477 77.5461 114.308 76.4557 114.253 75.0644C114.195 73.6116 115.327 72.4084 116.759 72.3981C118.12 72.3879 119.306 73.5399 119.337 74.8969L119.34 74.9003Z" fill="#0089D7"/>
</g>
</g>
<defs>
<clipPath id="clip0_36_100">
<rect width="141" height="142" fill="white" transform="translate(0 0.5)"/>
</clipPath>
<clipPath id="clip1_36_100">
<rect width="131" height="131" fill="white" transform="translate(5 12)"/>
</clipPath>
</defs>
</svg>
