<svg width="142" height="143" viewBox="0 0 142 143" fill="none" xmlns="http://www.w3.org/2000/svg">
<g clip-path="url(#clip0_35_88)">
<path d="M15.5973 126.393C13.9609 119.449 13.295 112.533 13.5386 105.544C13.7863 98.4043 14.5172 91.3214 17.2134 84.6341C18.054 82.5463 19.2072 80.4831 20.6325 78.7582C23.5683 75.2147 27.6411 75.2881 30.7474 78.6807C32.7452 80.8623 33.9147 83.5168 34.7999 86.2856C37.5489 94.8731 38.1823 103.705 37.691 112.656C37.6342 113.655 37.5692 114.654 37.4961 115.816C39.3437 115.282 40.9882 114.796 42.6328 114.332C50.2667 112.166 58.0468 110.915 65.9771 110.756C67.4024 110.727 68.2307 110.25 69.0022 109.031C76.4209 97.3237 83.9087 85.6617 91.3761 73.9874C91.6766 73.5225 91.9608 73.0454 92.31 72.4827C91.4695 71.92 90.6858 71.3736 89.8859 70.8557C80.5709 64.8208 71.2559 58.79 61.9409 52.7551C61.6851 52.5879 61.4292 52.4288 61.1775 52.2576C59.4517 51.0791 59.1878 49.8722 60.3369 48.1392C64.5924 41.7291 70.1189 36.7217 77.1315 33.5779C91.4776 27.1393 105.251 28.3585 118.42 36.9949C126.11 42.039 131.941 48.6244 135.198 57.2976C140.002 70.0932 138.853 82.4199 131.905 94.1799C130.707 96.2105 129.469 96.4797 127.511 95.2156C117.681 88.8585 107.854 82.4933 98.0273 76.1363C97.5644 75.8386 97.0934 75.5573 96.4843 75.1821C88.8951 86.9421 81.3424 98.649 73.6719 110.543C75.8037 110.723 77.7203 110.809 79.6126 111.065C83.2224 111.555 86.8161 112.138 90.4137 112.688C90.8117 112.749 91.2096 112.847 91.5954 112.97C92.8745 113.382 93.6297 114.544 93.4308 115.767C93.2155 117.084 92.107 118.018 90.6899 117.83C88.887 117.598 87.1084 117.174 85.3177 116.856C75.9215 115.188 66.5009 115.004 57.0357 116.236C47.1725 117.516 37.6748 120.118 28.7861 124.583C23.4546 127.258 18.391 130.467 13.2097 133.444C13.1366 133.484 13.1041 133.598 13.0026 133.762C20.1696 137.88 27.5883 138.891 35.145 135.193C40.5578 132.546 46.0924 131.38 52.0493 132.147C55.2003 132.551 58.128 133.611 60.9541 135.038C66.639 137.909 72.5146 138.08 78.4959 136.118C79.4055 135.821 80.2704 135.38 81.1312 134.952C89.4514 130.813 97.7634 130.822 106.1 134.912C112.97 138.284 119.849 138.202 126.715 134.883C126.849 134.818 126.967 134.724 127.085 134.634C127.121 134.606 127.134 134.545 127.207 134.402C123.735 132.343 120.263 130.267 116.775 128.224C115.029 127.201 113.246 126.234 111.476 125.252C109.998 124.432 109.482 123.156 110.124 121.859C110.774 120.55 112.154 120.077 113.62 120.868C116.471 122.405 119.276 124.028 122.078 125.659C125.623 127.723 129.127 129.859 132.693 131.89C133.285 132.228 134.098 132.294 134.808 132.294C136.221 132.294 137.638 132.061 139.047 132.102C140.55 132.147 141.476 133.146 141.5 134.479C141.524 135.866 140.534 137.011 138.991 136.975C134.861 136.877 131.211 138.316 127.511 139.972C119.833 143.413 112.032 143.336 104.467 139.609C98.7217 136.775 92.8785 136.216 86.7876 137.994C85.4882 138.373 84.2579 139.018 83.0275 139.605C75.02 143.417 66.9882 143.499 59.0335 139.564C51.8584 136.017 44.8011 135.972 37.6017 139.507C29.6551 143.409 21.5948 143.397 13.6117 139.54C10.3267 137.953 6.9767 136.84 3.2775 136.918C1.54769 136.954 0.426962 135.809 0.504113 134.361C0.581264 132.889 1.72635 131.902 3.49677 132.094C5.21034 132.277 6.62343 131.833 8.04869 130.915C10.4729 129.354 12.9864 127.939 15.5973 126.381V126.393ZM84.5056 61.4935C91.1203 52.0333 98.1938 43.1807 108.293 37.2355C92.9841 30.6501 74.4069 36.5219 65.6238 49.3135C71.9015 53.3626 78.1792 57.4117 84.5096 61.4935H84.5056ZM121.867 45.9984C120.787 57.8317 115.512 67.9321 109.758 77.9345C116.097 81.9999 122.346 86.0042 128.6 90.0166C136.741 76.2505 133.907 56.8694 121.867 46.0025V45.9984ZM105.722 75.0883C110.108 67.7608 113.762 60.315 115.861 52.1883C116.609 49.2891 117.226 46.3287 116.674 43.3071C116.239 40.9217 115.11 40.2448 112.771 40.8116C110.355 41.3988 108.313 42.72 106.392 44.2165C100.841 48.5469 96.1351 53.7092 91.9243 59.3323C90.7832 60.8533 89.7316 62.4395 88.5784 64.0868C94.3606 67.7975 99.9724 71.3981 105.722 75.0843V75.0883ZM19.9828 123.429C23.9784 121.553 27.8684 119.743 31.7301 117.879C32.0427 117.728 32.3229 117.227 32.3716 116.852C32.5706 115.392 32.7127 113.924 32.798 112.456C33.2447 104.851 32.7777 97.3197 30.8043 89.931C30.0815 87.2275 29.176 84.5729 27.4421 82.3221C26.2036 80.7196 25.0179 80.6462 23.9378 82.3506C22.813 84.1325 21.8466 86.0694 21.1441 88.0553C19.3859 93.0259 18.8052 98.2331 18.5169 103.473C18.1433 110.205 18.5697 116.876 19.9787 123.433L19.9828 123.429Z" fill="#0089D7"/>
<path d="M29.6428 37.1825C29.6428 38.5322 29.6631 40.0491 29.6388 41.566C29.6103 43.3398 28.648 44.3836 27.1293 44.3469C25.6716 44.3102 24.7863 43.299 24.7579 41.5782C24.7336 40.0573 24.7539 38.5322 24.7539 37.1214C22.6951 36.2814 20.742 35.4821 18.6021 34.6095C17.5423 35.6534 16.3484 36.8889 15.0815 38.0429C14.1395 38.9033 13.1243 38.9481 12.1538 38.3202C11.2362 37.7289 10.7611 36.5423 11.1549 35.5229C11.3498 35.0214 11.7275 34.5687 12.097 34.1691C13.0918 33.0926 14.1273 32.0569 15.045 31.1109C14.2085 29.0435 13.4329 27.127 12.5477 24.9333C11.5488 24.9333 10.2982 24.9373 9.05155 24.9333C8.54804 24.9333 8.0364 24.9414 7.53695 24.868C6.16853 24.6682 5.29144 23.6814 5.31175 22.4092C5.33205 21.1451 6.24568 20.1135 7.61816 20.0442C9.28301 19.9585 10.956 20.0238 12.5802 20.0238C13.4329 17.9279 14.2491 15.9298 15.1709 13.6667C14.2247 12.7696 13.0959 11.7543 12.028 10.6778C10.7895 9.43413 10.7042 7.94578 11.7397 6.91414C12.7751 5.88249 14.0989 5.95181 15.382 7.11394C15.9464 7.62365 16.4824 8.16598 17.0347 8.69199C17.5829 9.21393 18.131 9.73995 18.6021 10.1885C20.6445 9.34034 22.5855 8.53704 24.7579 7.63588C24.7579 6.37589 24.7457 4.86716 24.7579 3.35435C24.7782 1.57242 25.7 0.5 27.1943 0.5C28.6886 0.5 29.6144 1.56834 29.6388 3.35843C29.6591 4.83046 29.6388 6.29841 29.6388 7.80714C30.7392 8.18229 31.8031 8.47588 32.8141 8.90811C33.7806 9.31995 34.6861 9.87451 35.7175 10.4168C36.9032 9.26287 38.101 8.10481 39.2989 6.94268C40.6145 5.66638 41.9586 5.55221 43.0346 6.62055C44.0701 7.64812 43.9605 9.16092 42.722 10.372C41.5647 11.5056 40.379 12.6106 39.2948 13.6504C40.176 15.832 40.9678 17.7811 41.8652 20.0034C42.8316 20.0034 44.0336 19.9993 45.2314 20.0034C45.7877 20.0034 46.3481 19.9871 46.9003 20.0564C48.1794 20.2236 49.0484 21.1778 49.0849 22.3888C49.1174 23.5999 48.3094 24.6845 47.0343 24.8232C45.6822 24.97 44.3056 24.9455 42.9413 24.9251C42.0804 24.9129 41.6419 25.0964 41.3739 26.0791C40.9191 27.7224 40.1516 29.28 39.4329 31.0824C40.4399 32.1181 41.6419 33.268 42.7423 34.5035C44.0823 36.0122 43.5057 38.0959 41.6662 38.6342C40.6673 38.9277 39.8918 38.5037 39.1933 37.8553C38.6005 37.3008 38.0198 36.734 37.431 36.1753C36.8463 35.6208 36.2575 35.0744 35.8027 34.6462C33.6993 35.5148 31.7462 36.3181 29.6428 37.1866V37.1825ZM27.2308 12.737C21.814 12.7329 17.4813 17.0756 17.4854 22.4989C17.4935 27.8284 21.8384 32.1752 27.1577 32.1792C32.5746 32.1792 36.9153 27.8284 36.8991 22.4133C36.8829 17.0716 32.5543 12.7411 27.2268 12.737H27.2308Z" fill="#0089D7"/>
<path d="M106.416 118.952C106.295 120.97 104.861 122.095 103.399 121.688C101.994 121.296 100.606 120.795 99.2576 120.228C98.0516 119.722 97.5522 118.515 97.9014 117.349C98.2831 116.069 99.3592 115.318 100.707 115.665C102.214 116.052 103.732 116.534 105.105 117.247C105.787 117.602 106.144 118.576 106.416 118.947V118.952Z" fill="#0089D7"/>
</g>
<defs>
<clipPath id="clip0_35_88">
<rect width="141" height="142" fill="white" transform="translate(0.5 0.5)"/>
</clipPath>
</defs>
</svg>
