<svg width="142" height="143" viewBox="0 0 142 143" fill="none" xmlns="http://www.w3.org/2000/svg">
<path d="M106.417 118.952C106.295 120.97 104.861 122.095 103.4 121.688C101.995 121.296 100.606 120.795 99.2578 120.228C98.0518 119.722 97.5523 118.515 97.9015 117.349C98.2832 116.069 99.3593 115.318 100.707 115.665C102.214 116.052 103.733 116.534 105.105 117.247C105.787 117.602 106.145 118.576 106.417 118.947V118.952Z" fill="#0089D7"/>
<g clip-path="url(#clip0_36_106)">
<path d="M24.8173 39.6847C24.8173 35.7966 24.802 32.1169 24.8173 28.4334C24.8821 16.6137 34.4791 7.29895 46.3531 8.04171C50.3086 8.28803 54.1458 8.28424 58.0975 8.04171C69.9754 7.30653 79.5532 16.5986 79.6295 28.441C79.6524 32.1245 79.6295 35.8041 79.6295 39.6884C80.2055 39.6884 80.709 39.6884 81.2087 39.6884C85.7782 39.6884 90.344 39.6847 94.9136 39.6884C97.0916 39.6884 97.8163 40.4009 97.9231 42.5306C98.3923 51.925 98.8691 61.3193 99.3459 70.7137C99.3535 70.8956 99.3917 71.0775 99.4451 71.4564H101.104C111.144 71.4564 121.183 71.4564 131.222 71.4564C133.698 71.4564 134.301 72.0287 134.495 74.4919C135.887 92.2991 137.28 110.11 138.676 127.917C138.79 129.376 138.931 130.839 138.992 132.302C139.069 134.034 138.184 134.936 136.448 134.996C136.116 135.008 135.781 134.996 135.449 134.996C92.1482 134.996 48.8477 134.996 5.54721 134.996C2.48429 134.996 1.86255 134.363 2.01894 131.317C3.11747 109.697 4.22745 88.0775 5.32598 66.458C5.7303 58.4809 6.12699 50.5039 6.51987 42.523C6.62286 40.3971 7.3514 39.6922 9.53702 39.6884C14.572 39.6809 19.6069 39.6884 24.8135 39.6884L24.8173 39.6847ZM24.8173 44.2814H10.9941C9.54846 73.0026 8.11045 101.675 6.66481 130.365H56.9456C57.0753 128.925 57.2088 127.569 57.3117 126.212C58.5857 109.58 59.8559 92.9471 61.1337 76.3147C61.3829 73.0733 63.1553 71.4527 66.4509 71.4527H76.5475C76.086 62.297 75.6359 53.3044 75.182 44.3345H65.9284C65.9284 46.4301 65.936 48.4158 65.9284 50.3978C65.9207 52.213 65.1159 53.2475 63.7046 53.2854C62.2437 53.3271 61.3702 52.2509 61.3664 50.375C61.3588 48.359 61.3664 46.3429 61.3664 44.3193H29.3869C29.3869 48.9994 29.3678 53.581 29.4212 58.1588C29.425 58.5643 29.795 59.0949 30.1536 59.3488C31.6564 60.425 33.2089 61.4368 34.7651 62.4335C35.7721 63.0777 36.2604 63.9152 36.2527 65.1354C36.2222 70.8539 36.2451 76.5762 36.2337 82.2946C36.2298 84.2425 35.4098 85.0534 33.4568 85.061C29.2229 85.0762 24.989 85.0762 20.7512 85.061C18.7906 85.0534 17.9744 84.2463 17.9705 82.2984C17.9591 76.5799 17.982 70.8577 17.9515 65.1392C17.9438 63.919 18.4206 63.0815 19.4353 62.4411C20.9991 61.452 22.5478 60.4364 24.0544 59.3639C24.413 59.11 24.7792 58.5757 24.783 58.1664C24.8326 53.5848 24.8135 49.0032 24.8135 44.2776L24.8173 44.2814ZM65.7567 76.0684C64.353 94.1901 62.957 112.247 61.5571 130.365H115.996C114.588 112.198 113.192 94.137 111.792 76.0684H65.7567ZM42.8248 39.6089H61.2825C61.2825 35.2433 61.5533 30.9345 61.2138 26.6788C60.7866 21.3621 57.9373 17.3337 53.3296 14.5522C52.5362 14.0747 51.8877 14.0937 51.1058 14.5636C47.3601 16.8222 44.4116 19.9334 43.7708 24.2156C43.0156 29.2557 43.1071 34.4209 42.8248 39.6127V39.6089ZM116.373 76.0759C117.655 92.644 118.933 109.117 120.241 125.988C121.889 123.54 123.327 121.49 124.654 119.368C124.994 118.83 125.154 118.053 125.097 117.413C124.238 108.386 123.334 99.3591 122.43 90.3361C121.957 85.5991 121.458 80.866 120.962 76.0759H116.373ZM75.0141 39.624C75.0141 35.3153 75.2544 31.1089 74.9607 26.9365C74.4725 20.0243 69.4528 14.465 62.6442 12.8886C61.3664 12.593 60.0276 12.5513 58.7154 12.3959C61.1986 14.9425 63.3461 17.5194 64.3721 20.7103C65.1846 23.2379 65.6919 25.9247 65.8712 28.5698C66.1191 32.2192 65.9322 35.8989 65.9322 39.6278H75.0141V39.624ZM45.9831 12.5892C38.4689 11.8389 30.6647 17.9514 29.7378 25.5458C29.2076 29.8772 29.4746 34.3035 29.3907 38.688C29.3831 38.9987 29.4594 39.3095 29.4937 39.5748H38.5223C38.5223 36.3006 38.4727 33.1363 38.5413 29.9758C38.5833 28.0507 38.6367 26.0952 38.9914 24.208C39.8573 19.5961 42.2603 15.8103 45.9831 12.593V12.5892ZM133.732 123.472C132.508 107.67 131.287 91.8671 130.067 76.0835H125.57C125.772 78.0541 125.97 79.9299 126.157 81.802C127.24 92.6591 128.476 103.505 129.319 114.381C129.605 118.095 131.371 120.797 133.732 123.472ZM22.5325 80.4415H31.6679C31.6679 79.46 31.6679 78.5695 31.6679 77.6789C31.6679 74.0409 31.6717 70.4067 31.6679 66.7687C31.6679 65.8251 27.6437 62.623 26.8732 63.0512C25.4276 63.8584 24.0849 64.8436 22.7309 65.8024C22.563 65.9199 22.5401 66.3102 22.5401 66.5755C22.5287 71.1533 22.5325 75.7349 22.5325 80.4415ZM81.1171 71.3655H85.9423C85.4006 62.2781 84.8666 53.293 84.3364 44.3345H79.7592C80.2169 53.4029 80.667 62.3577 81.1171 71.3655ZM88.9174 44.2966C89.4553 53.3915 89.9893 62.3994 90.5233 71.3769H94.8183C94.3605 62.3046 93.9104 53.3158 93.4565 44.2966H88.9213H88.9174ZM127.595 123.203C125.917 125.708 124.395 127.986 122.819 130.339H132.39C130.761 127.917 129.243 125.659 127.595 123.203Z" fill="#0089D7"/>
<path d="M102.474 96.8996C102.474 99.738 102.501 102.573 102.47 105.411C102.394 111.872 97.4542 116.784 90.9469 116.825C88.7651 116.84 86.5451 116.92 84.4053 116.571C79.0575 115.707 75.1555 111.126 75.0906 105.76C75.0182 99.757 75.0639 93.7505 75.0716 87.7478C75.0716 86.0842 75.9794 85.0686 77.364 85.0799C78.7448 85.0913 79.6221 86.1069 79.6259 87.7819C79.6373 93.5042 79.6259 99.2226 79.6335 104.945C79.6411 109.47 82.4714 112.281 87.0219 112.3C88.3531 112.304 89.6881 112.319 91.0194 112.297C94.9367 112.221 97.8661 109.337 97.8966 105.441C97.9386 99.6281 97.8737 93.8111 97.95 87.9979C97.9615 87.1869 98.2971 86.1751 98.8578 85.6408C99.3003 85.2164 100.529 85.0458 101.024 85.3604C101.7 85.7924 102.375 86.7701 102.413 87.5469C102.569 90.6582 102.478 93.7846 102.478 96.9034L102.474 96.8996Z" fill="#0089D7"/>
</g>
<defs>
<clipPath id="clip0_36_106">
<rect width="137" height="127" fill="white" transform="translate(2 8)"/>
</clipPath>
</defs>
</svg>
