<svg width="141" height="143" viewBox="0 0 141 143" fill="none" xmlns="http://www.w3.org/2000/svg">
<path d="M105.916 118.952C105.795 120.97 104.361 122.095 102.899 121.688C101.494 121.296 100.106 120.795 98.7576 120.228C97.5516 119.722 97.0522 118.515 97.4014 117.349C97.7831 116.069 98.8592 115.318 100.207 115.665C101.714 116.052 103.232 116.534 104.605 117.247C105.287 117.602 105.644 118.576 105.916 118.947V118.952Z" fill="#0089D7"/>
<g clip-path="url(#clip0_36_118)">
<path d="M73.4769 8C76.3891 8.71947 79.4425 9.09848 82.1909 10.2227C92.8345 14.5716 99.2368 22.5212 101.253 33.8722C101.632 36.0145 101.703 38.2308 101.719 40.4149C101.776 47.9822 101.706 55.5527 101.767 63.1233C101.841 72.531 103.751 81.5758 107.344 90.2641C107.537 90.7331 107.89 91.1956 108.288 91.5072C111.971 94.3915 113.952 98.1494 113.974 102.829C114.022 113.335 113.993 123.842 113.993 134.345C113.993 134.544 113.952 134.74 113.923 135H28.0833C28.048 134.782 27.9998 134.624 27.9998 134.467C28.0127 123.671 27.9613 112.876 28.0769 102.084C28.1218 97.8315 30.1639 94.4429 33.4003 91.7256C33.9686 91.247 34.4888 90.595 34.7681 89.914C38.5215 80.8243 40.2874 71.3426 40.2521 61.5109C40.2264 54.2326 40.252 46.9512 40.2456 39.6729C40.2424 29.9986 43.6843 21.8434 51.0145 15.4517C55.6893 11.3757 61.1637 9.02461 67.3155 8.24411C67.7168 8.19272 68.115 8.08351 68.5131 8C70.1666 8 71.8202 8 73.4737 8H73.4769ZM70.9629 111.607C71.1812 111.431 71.3161 111.341 71.4285 111.228C80.8745 101.785 90.3205 92.3423 99.7376 82.8703C100.03 82.5748 100.178 81.9067 100.078 81.4891C98.8579 76.3725 97.8786 71.2109 97.7952 65.9466C97.6539 57.1394 97.641 48.3323 97.6153 39.522C97.6057 36.4385 97.3007 33.4096 96.2989 30.49C91.2099 15.7086 75.7758 8.47537 61.1573 13.9967C51.7369 17.5555 44.6572 27.3487 44.4613 37.37C44.3169 44.7285 44.3779 52.0935 44.3875 59.4552C44.3971 66.7977 43.8031 74.0728 41.9184 81.1936C41.6808 82.0962 41.9088 82.6133 42.5317 83.23C46.7378 87.3862 50.9085 91.5778 55.0889 95.763C55.3972 96.0713 55.6926 96.3925 55.7825 96.4857C54.8353 97.5649 53.978 98.5445 52.9827 99.6783C48.7349 95.4161 44.5384 91.2085 40.2938 86.9494C39.8571 88.1282 39.4879 89.3102 38.9806 90.4279C38.5857 91.2952 38.8233 91.8219 39.4654 92.4579C49.0752 102.029 58.6561 111.63 68.2466 121.221C70.2726 123.248 71.7271 123.248 73.753 121.221C79.5709 115.404 85.3888 109.581 91.2067 103.761C95.0082 99.9578 98.8194 96.1709 102.589 92.339C102.926 91.9986 103.241 91.3144 103.131 90.9097C102.765 89.5671 102.2 88.2792 101.667 86.8595C91.4314 97.0991 81.2726 107.262 71.2422 117.299C66.5898 112.648 62.0434 108.106 57.6415 103.706C58.441 102.855 59.3368 101.907 60.2807 100.902C63.8222 104.448 67.354 107.988 70.9661 111.604L70.9629 111.607ZM48.3046 107.117C47.4281 108.264 46.5387 109.211 45.8966 110.303C43.2926 114.736 43.954 119.624 47.9129 123.357C49.7912 125.127 50.9792 126.916 50.4911 129.549C50.276 130.702 50.7929 130.992 51.9167 130.988C64.6409 130.95 77.3683 130.966 90.0926 130.963C90.5292 130.963 90.9627 130.914 91.4282 130.889C91.4603 130.558 91.5278 130.349 91.4924 130.156C90.9691 127.195 92.2117 125.143 94.3372 123.071C99.073 118.452 98.5882 111.389 93.5281 107.268C93.2102 107.573 92.8795 107.875 92.5616 108.193C87.2157 113.541 81.873 118.892 76.5239 124.24C72.9825 127.78 69.0011 127.776 65.4532 124.227C60.1041 118.879 54.7614 113.528 49.4155 108.18C49.0977 107.866 48.767 107.564 48.3046 107.124V107.117ZM109.774 130.914C109.855 130.706 109.909 130.629 109.909 130.555C109.909 121.134 109.977 111.71 109.864 102.293C109.829 99.2736 108.375 96.7715 106.085 95.005C102.936 98.1527 99.8532 101.233 96.7195 104.365C96.9732 104.692 97.2654 105.151 97.6346 105.53C103.167 111.235 103.286 120.549 96.8865 126.344C95.3614 127.725 95.4834 129.202 95.6793 130.914H109.778H109.774ZM35.9368 94.9632C33.3232 97.0734 32.0614 99.8967 32.0582 103.321C32.0582 112.08 32.0582 120.839 32.0582 129.601C32.0582 130.002 32.0582 130.407 32.0582 130.857H46.3107C46.6671 128.92 46.2979 127.484 44.8306 126.048C38.8939 120.238 38.7237 111.887 44.2141 105.694C44.6219 105.235 44.9847 104.734 45.3379 104.287C42.2106 101.188 39.1379 98.1398 35.9368 94.9632Z" fill="#0089D7"/>
<path d="M93.7401 49.2926C93.5346 53.2915 93.7787 57.3739 93.0338 61.27C91.2293 70.7195 85.3954 76.8736 76.0521 79.0673C67.0074 81.1904 59.3241 78.3125 53.3778 71.1595C49.9744 67.0675 48.4781 62.2239 48.4493 56.9274C48.4171 51.4703 48.4493 46.0133 48.4364 40.5562C48.4332 38.7414 48.9983 37.174 50.1766 35.7832C54.0616 31.203 58.5342 27.4354 64.3264 25.5083C70.4461 23.4687 76.3057 24.2717 81.8892 27.3551C85.8064 29.52 89.0717 32.4717 91.9164 35.9149C93.0209 37.2511 93.5539 38.7575 93.5475 40.4759C93.5411 43.4116 93.5475 46.3473 93.5475 49.283C93.6117 49.283 93.6759 49.2894 93.7401 49.2926ZM89.4088 53.6866C89.4088 52.0324 89.473 50.3751 89.3767 48.7273C89.3382 48.101 89.0749 47.3526 88.6543 46.8998C83.9441 41.8249 78.0331 38.7382 71.4928 36.734C71.236 36.6569 70.9181 36.6344 70.6677 36.7115C63.9668 38.7607 57.9113 41.9084 53.092 47.131C52.8576 47.3848 52.6008 47.7541 52.604 48.0657C52.6553 52.1127 52.4049 56.2015 52.909 60.194C53.9268 68.2495 60.907 74.728 68.8664 75.4988C77.4231 76.3307 85.1995 71.5835 88.1855 63.8235C89.457 60.5216 89.4409 57.1169 89.4024 53.6866H89.4088ZM52.6971 41.6771C60.4382 35.1055 69.4476 31.9161 79.3078 30.7662C75.4388 28.6463 71.3708 27.9365 67.1134 28.9836C61.4624 30.3711 57.1986 33.8818 53.4869 38.1986C52.62 39.2072 52.4402 40.2639 52.6971 41.6771ZM79.2885 34.9642C82.7465 37.174 86.0504 39.2875 89.3574 41.4041C89.5533 40.2286 89.396 39.0915 88.4039 38.1215C87.431 37.1708 86.5513 36.1301 85.5944 35.1633C85.3568 34.9224 84.9716 34.6719 84.6601 34.6815C82.891 34.7329 81.1283 34.8614 79.2885 34.9642Z" fill="#0089D7"/>
<path d="M62.8912 61.3888H66.7666C67.6849 64.3117 68.9852 65.4519 71.2392 65.3459C73.2459 65.2528 74.5912 63.9294 75.1402 61.4209H79.0959C79.1633 65.757 75.503 69.409 71.0594 69.4893C66.6606 69.5696 62.843 65.8181 62.8912 61.3888Z" fill="#0089D7"/>
<path d="M62.7853 51.0592C62.7724 52.1417 61.7803 53.0988 60.7015 53.0699C59.597 53.0378 58.7044 52.0742 58.7462 50.9597C58.7879 49.8997 59.6933 49.01 60.74 49.0004C61.806 48.994 62.7981 49.9897 62.7853 51.0592Z" fill="#0089D7"/>
<path d="M83.2474 50.9982C83.2699 52.1095 82.3516 53.0635 81.2503 53.0699C80.1683 53.0763 79.1954 52.1031 79.2083 51.0207C79.2179 49.9928 80.1362 49.0517 81.17 49.0068C82.252 48.9586 83.2281 49.8965 83.2506 50.9982H83.2474Z" fill="#0089D7"/>
</g>
<defs>
<clipPath id="clip0_36_118">
<rect width="86" height="127" fill="white" transform="translate(28 8)"/>
</clipPath>
</defs>
</svg>
