<svg width="142" height="143" viewBox="0 0 142 143" fill="none" xmlns="http://www.w3.org/2000/svg">
<g clip-path="url(#clip0_36_112)">
<path d="M2 60.8333C2.31227 59.3059 2.56067 57.76 2.94747 56.2513C6.44281 42.6057 17.8799 33.661 31.3964 34.0549C41.5453 34.3484 49.8525 38.6034 56.1796 46.9796C56.3145 47.1579 56.4635 47.3177 56.6906 47.589C57.2868 46.8383 57.8368 46.136 58.3975 45.4411C68.2128 33.2968 86.3531 30.2719 98.7235 39.0233C107.435 45.1884 111.53 54.0774 111.381 65.0957C111.378 65.4636 111.332 65.8352 111.268 66.1994C110.998 67.749 109.873 68.7226 108.496 68.6111C107.105 68.4996 106.222 67.3737 106.104 65.7869C105.902 63.0295 105.948 60.1867 105.303 57.5371C102.471 45.9316 91.9634 38.4139 80.5832 39.5659C71.151 40.5209 63.9829 45.1549 59.2136 53.7801C57.8084 56.3219 55.5302 56.2476 54.0895 53.6351C47.5282 41.7398 33.8697 36.4332 21.9572 41.149C12.0779 45.0583 5.90698 56.255 7.42577 67.3328C8.97649 78.6558 13.7813 88.4552 20.2539 97.4445C29.0685 109.682 40.3246 118.764 53.5785 125.182C55.5373 126.129 57.5316 126.259 59.4833 125.319C61.7651 124.219 63.9829 122.971 66.1014 121.852C65.3349 119.396 64.3804 117.136 63.9368 114.773C62.709 108.214 64.0433 102.015 67.1766 96.3111C73.3086 85.1479 82.62 78.2693 94.5503 75.7201C107.758 72.8995 120.029 75.8093 131.097 83.9401C133.503 85.709 135.586 87.8644 137.002 90.618C138.847 94.2115 138.198 96.2071 134.518 97.6081C130.274 99.2246 126.679 101.726 124.106 105.624C122.655 107.824 121.399 110.18 120.189 112.539C117.829 117.129 115.171 121.492 111.74 125.289C106.867 130.682 101.161 134.58 94.0216 135.669C84.7705 137.081 76.9565 133.929 70.3491 127.177C70.0368 126.858 69.7919 126.467 69.5506 126.159C67.0595 127.486 64.7494 128.738 62.418 129.946C58.5962 131.926 54.785 131.867 50.9313 129.935C32.6242 120.748 18.256 107.158 8.60744 88.3363C5.28243 81.848 2.95102 74.9768 2.21291 67.5892C2.18098 67.2808 2.07097 66.9797 2 66.675C2 64.7278 2 62.7805 2 60.8333ZM73.3795 122.398C73.5144 122.606 73.5925 122.777 73.7131 122.907C79.2276 128.861 85.8457 131.581 93.759 130.191C99.5006 129.184 104.011 125.836 107.932 121.506C111.69 117.359 114.327 112.447 116.832 107.422C120.15 100.77 124.816 95.5605 131.707 92.8849C131.817 92.8403 131.91 92.7436 132.247 92.5021C130.916 91.1754 129.749 89.767 128.361 88.6671C121.236 83.0334 113.099 80.4098 104.241 80.2389C92.627 80.0196 82.8897 84.4938 75.2887 93.6764C70.7962 99.1019 68.1809 105.397 68.958 112.796C69.1213 114.338 69.6429 115.839 70.09 117.731C70.7146 116.861 71.0304 116.423 71.3462 115.981C75.168 110.667 79.3518 105.676 84.3908 101.614C87.5667 99.0536 91.0089 96.8425 94.4013 94.5868C95.732 93.7024 97.2437 94.2375 97.9712 95.5419C98.7306 96.9057 98.3047 98.4405 96.8995 99.3472C96.5233 99.5888 96.1259 99.7931 95.7391 100.024C86.4809 105.497 79.405 113.353 73.3831 122.391L73.3795 122.398Z" fill="#0089D7"/>
</g>
<defs>
<clipPath id="clip0_36_112">
<rect width="141" height="142" fill="white" transform="translate(0.5 0.5)"/>
</clipPath>
</defs>
</svg>
