<svg width="142" height="143" viewBox="0 0 142 143" fill="none" xmlns="http://www.w3.org/2000/svg">
<path d="M106.417 118.952C106.295 120.97 104.861 122.095 103.4 121.688C101.995 121.296 100.606 120.795 99.2578 120.228C98.0518 119.722 97.5523 118.515 97.9015 117.349C98.2832 116.069 99.3593 115.318 100.707 115.665C102.214 116.052 103.733 116.534 105.105 117.247C105.787 117.602 106.145 118.576 106.417 118.947V118.952Z" fill="#0089D7"/>
<g clip-path="url(#clip0_36_167)">
<path d="M6.5 127.171C6.5 95.5978 6.5 64.0217 6.5 32.4456C6.55189 32.3833 6.63232 32.3263 6.65308 32.2536C8.28507 26.3488 11.8422 23.6377 17.9706 23.6377C51.0386 23.6377 84.1039 23.6377 117.172 23.6377C117.701 23.6377 118.233 23.6377 118.864 23.6377C118.864 23.0306 118.864 22.5792 118.864 22.1252C118.864 18.0961 118.902 14.0671 118.84 10.0406C118.822 8.77974 119.084 7.75237 120.132 7C122.314 7 124.499 7 126.681 7C126.826 7.07264 126.964 7.17382 127.117 7.21274C132.374 8.48139 135.492 12.4067 135.495 17.8367C135.503 48.0663 135.503 78.2934 135.482 108.523C135.482 109.6 135.355 110.713 135.069 111.75C133.769 116.475 129.727 119.352 124.476 119.352C91.2624 119.354 58.0517 119.352 24.8385 119.352C24.3066 119.352 23.7747 119.352 23.1365 119.352C23.1365 119.949 23.1365 120.403 23.1365 120.854C23.1365 125.093 23.1468 129.335 23.1313 133.574C23.1261 135.198 22.3581 135.958 20.7391 135.982C19.3536 136 17.9681 136.01 16.5825 135.971C12.1873 135.852 8.31621 132.905 6.99038 128.702C6.82951 128.191 6.66346 127.68 6.5 127.169L6.5 127.171ZM23.1728 75.6679C24.3014 75.6679 25.3185 75.7846 26.2993 75.6445C29.1351 75.2424 31.1485 76.3502 33.123 78.3919C34.9236 80.2547 36.0627 82.0604 35.6475 84.6729C35.126 87.947 36.016 90.6166 38.8103 92.6299C39.3656 93.0294 39.6743 94.049 39.734 94.8091C39.8663 96.5629 39.8845 98.3427 39.7288 100.091C39.6562 100.927 39.2592 101.871 38.7091 102.504C37.3911 104.022 35.7876 105.296 34.5007 106.834C33.0711 108.544 31.4028 109.185 29.2052 109.003C27.2229 108.84 25.2173 108.969 23.2039 108.969V115.165C23.8033 115.165 24.3377 115.165 24.8696 115.165C57.9506 115.165 91.0315 115.165 124.112 115.165C124.574 115.165 125.036 115.17 125.498 115.141C128.824 114.931 131.349 112.215 131.318 108.889C131.286 105.519 128.645 102.821 125.264 102.727C124.175 102.696 123.082 102.717 121.99 102.717C119.434 102.717 118.861 102.151 118.861 99.6399C118.861 76.2594 118.861 52.8763 118.861 29.4958V27.9314H73.0562C73.0562 28.9899 72.9836 29.955 73.0744 30.9071C73.2041 32.2848 72.8097 33.4159 71.6837 34.2046C69.3174 35.865 68.4846 38.1065 68.9282 40.9188C69.1773 42.4936 68.3912 43.591 67.426 44.826C64.9974 47.9314 62.0474 49.0729 58.1425 48.676C56.3082 48.4892 54.7722 48.2505 53.6799 46.7095C52.3385 44.8182 50.5456 44.071 48.2676 44.4757C47.7071 44.5743 46.9833 44.4809 46.6148 44.7974C45.2579 45.9675 44.0177 47.275 42.6711 48.5904C44.2564 50.1626 45.7768 51.5532 47.1389 53.0838C47.6449 53.6494 47.9951 54.5263 48.0496 55.2865C48.1794 57.0818 48.182 58.9004 48.0496 60.6957C47.9925 61.4559 47.6345 62.338 47.1208 62.8958C45.359 64.8104 43.5195 66.6576 41.5995 68.4114C41.0105 68.951 40.0869 69.3194 39.2825 69.3895C37.5727 69.5348 35.8343 69.5425 34.1271 69.3895C33.2865 69.3142 32.3472 68.9147 31.7064 68.3673C30.3053 67.1739 28.9302 65.8949 27.7937 64.455C26.4601 62.766 24.8359 63.2019 23.1728 63.2486V75.6704V75.6679ZM68.8244 27.825C68.2251 27.825 67.7269 27.825 67.2262 27.825C50.7765 27.825 34.3269 27.825 17.8772 27.825C17.4569 27.825 17.0366 27.8172 16.6189 27.8406C13.2148 28.017 10.6487 30.7255 10.6799 34.1008C10.7136 37.4657 13.3523 40.1639 16.7304 40.2625C17.8202 40.2936 18.9125 40.2728 20.0022 40.2754C22.5605 40.2754 23.1365 40.8384 23.1365 43.3472C23.1365 48.0897 23.1365 52.8296 23.1365 57.5721C23.1365 58.0183 23.1365 58.4672 23.1365 59.012C24.3922 59.012 25.4794 59.0535 26.5639 59.0016C27.6977 58.9471 28.5669 59.3389 29.3453 60.1691C30.6063 61.5181 31.9944 62.7453 33.232 64.1125C34 64.9583 34.8406 65.1684 35.9537 65.2878C38.185 65.529 39.8507 64.8286 41.1403 63.0566C41.2881 62.8543 41.4672 62.6649 41.6696 62.5196C43.6362 61.1264 44.4224 59.2351 43.9502 56.8846C43.8127 56.2023 43.5792 55.4318 43.1329 54.9362C41.7552 53.4133 40.2477 52.0072 38.7999 50.5491C37.3003 49.0392 37.3133 48.1571 38.8441 46.6213C39.9701 45.4901 41.0858 44.3512 42.2274 43.2382C45.8806 39.6787 44.2745 40.4856 49.4066 40.2235C52.0712 40.0886 54.1754 40.6905 55.7296 42.888C56.7 44.2604 58.0102 44.7403 59.6474 44.4861C60.4206 44.3667 61.4403 44.6236 61.941 44.2111C63.5211 42.9165 65.2595 41.6323 64.7587 39.0794C64.2398 36.4202 65.1116 34.1994 67.387 32.6583C69.1488 31.4649 69.1047 29.789 68.8218 27.8276L68.8244 27.825ZM131.336 100.618C131.336 99.8137 131.336 99.3156 131.336 98.8148C131.336 89.4543 131.336 80.0913 131.336 70.7308C131.336 53.1824 131.284 35.6341 131.372 18.0883C131.395 13.5819 127.963 10.3416 123.098 11.3456V98.4983C125.983 98.4309 128.713 98.7189 131.336 100.618ZM10.6643 42.3613C10.6643 43.1707 10.6643 43.6689 10.6643 44.167C10.6643 50.5906 10.6643 57.0143 10.6643 63.4354C10.6643 83.9231 10.711 104.411 10.628 124.896C10.6098 129.377 14.0191 132.645 18.9021 131.641V44.4887C16.0143 44.5587 13.2874 44.2656 10.6643 42.3613ZM23.2221 79.8085V104.769C23.7617 104.769 24.2158 104.772 24.6724 104.769C26.6417 104.756 28.8523 105.296 30.518 104.574C32.2772 103.812 33.5174 101.853 34.9755 100.405C35.209 100.172 35.5853 99.8811 35.5723 99.6321C35.4763 97.6448 36.457 95.4084 34.2776 93.87C31.9451 92.2251 30.9851 89.9836 31.4495 87.1402C31.5299 86.6498 31.3924 86.1232 31.4728 85.6354C31.8205 83.5314 31.1174 81.8892 29.3894 80.6776C28.9328 80.3585 28.4528 79.8863 27.9572 79.85C26.4186 79.741 24.867 79.8111 23.2273 79.8111L23.2221 79.8085Z" fill="#0089D7"/>
<path d="M66.8033 91.3119C66.7904 93.5457 65.8563 96.3736 64.0686 98.9083C61.5078 102.54 58.921 106.152 56.3238 109.758C55.0914 111.47 53.6099 111.462 52.3801 109.745C49.7154 106.032 47.0093 102.351 44.438 98.5736C41.0625 93.6132 41.0236 87.4282 44.1993 82.9918C47.3829 78.5424 53.1351 76.646 58.262 78.3556C63.4433 80.0835 66.8993 84.9635 66.8033 91.3145V91.3119ZM54.2689 105.35C54.531 105.057 54.6789 104.919 54.793 104.759C56.7908 101.957 58.838 99.1885 60.7528 96.3321C61.4403 95.3073 61.9826 94.1165 62.3043 92.9256C63.2254 89.4985 62.5612 86.3904 59.8265 83.988C57.3513 81.8139 54.4479 81.2977 51.363 82.4781C46.4385 84.3668 44.438 90.1237 47.2765 95.1023C49.2977 98.6488 51.8715 101.879 54.2689 105.35Z" fill="#0089D7"/>
<path d="M98.029 67.2465H93.9399V52.5286C87.0643 49.6852 85.9927 40.3844 89.9417 35.2138C93.2679 30.8552 98.8359 30.9045 102.077 35.3305C105.167 39.5542 105.021 45.9156 101.682 49.8435C101.067 50.5647 100.336 51.3456 99.4898 51.6751C98.0991 52.2199 97.9901 53.1409 98.0057 54.3966C98.0627 58.628 98.029 62.8594 98.029 67.2439V67.2465ZM93.9685 47.6279V44.5743H98.0835V47.4411C100.72 45.5368 101.005 38.9341 97.5698 36.6485C96.41 35.8779 95.0893 36.0025 93.9711 36.9339C91.2416 39.2065 91.0989 44.9245 93.9711 47.6279H93.9685Z" fill="#0089D7"/>
<path d="M79.2833 58.7811V67.2387H75.2669C75.2332 66.8599 75.1735 66.4993 75.1735 66.1387C75.1631 64.4186 75.0801 62.6908 75.1968 60.9785C75.298 59.5023 74.9919 58.6695 73.4455 57.969C69.8364 56.3346 68.1915 52.2588 69.2423 48.4425C70.249 44.787 73.8139 42.1771 77.532 42.3716C81.5432 42.5818 84.7293 45.3604 85.4143 49.2493C86.0889 53.0838 84.0522 56.8145 80.4457 58.3322C80.1006 58.4775 79.7452 58.602 79.2859 58.7811H79.2833ZM79.3819 50.6736V54.1786C81.2344 52.8218 81.8104 51.0265 81.1151 49.213C80.4249 47.4151 78.6606 46.3488 76.7328 46.5616C74.9192 46.7613 73.4611 48.183 73.1316 50.0717C72.8488 51.688 73.6531 53.3251 75.1709 54.0204C75.1709 53.1383 75.1138 52.3055 75.202 51.4857C75.2332 51.1951 75.6094 50.7281 75.8559 50.71C76.969 50.6269 78.0924 50.6736 79.3845 50.6736H79.3819Z" fill="#0089D7"/>
<path d="M91.8125 110.98H87.7261V106.852C88.8859 106.852 90.043 106.821 91.195 106.881C91.4104 106.891 91.7736 107.249 91.784 107.462C91.8437 108.616 91.8125 109.773 91.8125 110.982V110.98Z" fill="#0089D7"/>
<path d="M71.0454 110.982V106.93H75.0852V110.982H71.0454Z" fill="#0089D7"/>
<path d="M83.4087 110.977H79.4104V106.935H83.4087V110.977Z" fill="#0089D7"/>
<path d="M105.034 75.5901H100.782V71.5844H104.715C104.819 72.8867 104.923 74.1969 105.034 75.5901Z" fill="#0089D7"/>
<path d="M78.8861 73.6313C79.9162 74.9025 80.7464 75.9247 81.5663 76.9365C80.9255 77.7849 80.3313 78.5736 79.6723 79.4479C78.4865 78.9549 77.2723 78.449 75.77 77.8264C76.8312 76.3969 77.799 75.0945 78.8861 73.6339V73.6313Z" fill="#0089D7"/>
<path d="M99.2615 89.9447C100.559 91.1096 101.724 92.1551 102.886 93.198C102.787 93.3771 102.689 93.5561 102.59 93.7351C101.467 94.4148 100.343 95.0971 99.3627 95.6886C98.5454 94.8507 97.8241 94.1113 97.0327 93.2992C97.6606 92.3549 98.3741 91.2782 99.2615 89.9447Z" fill="#0089D7"/>
<path d="M110.047 74.1917C109.152 72.8037 108.454 71.7218 107.746 70.6244C108.441 69.8694 109.111 69.143 109.884 68.3076C110.986 68.9095 112.138 69.5374 113.589 70.3312C112.382 71.644 111.287 72.8374 110.045 74.1917H110.047Z" fill="#0089D7"/>
<path d="M75.0073 83.054C76.6186 82.8724 77.8899 82.7271 79.208 82.5792C79.5712 83.534 79.9215 84.4524 80.3314 85.5212C79.3091 86.2347 78.2324 86.9845 76.8599 87.9392C76.2216 86.258 75.6534 84.7533 75.0073 83.054Z" fill="#0089D7"/>
<path d="M104.417 98.4672C104.191 100.237 103.989 101.811 103.768 103.542C102.256 102.992 101.018 102.54 99.8037 102.097C99.9568 101.01 100.094 100.026 100.25 98.9056C101.493 98.7759 102.769 98.641 104.417 98.4672Z" fill="#0089D7"/>
<path d="M84.423 75.59C84.2024 74.2928 83.9897 73.032 83.751 71.6232H88.1644V75.59H84.423Z" fill="#0089D7"/>
<path d="M92.4612 75.5718V71.5687H96.4491V75.5718H92.4612Z" fill="#0089D7"/>
<path d="M85.7982 92.4717C84.1298 92.1059 82.5861 91.766 80.8347 91.382C81.543 89.9551 82.1113 88.8136 82.695 87.6357C83.7432 87.8459 84.7422 88.0482 85.7982 88.261V92.4717Z" fill="#0089D7"/>
<path d="M93.8855 92.2589H90.1104V88.2299H94.4563C94.2565 89.6464 94.0697 90.9514 93.8855 92.2589Z" fill="#0089D7"/>
<path d="M66.8267 110.962H62.7688V106.85C63.9052 106.85 65.0261 106.811 66.1392 106.881C66.3805 106.896 66.78 107.288 66.7956 107.527C66.8656 108.645 66.8267 109.768 66.8267 110.959V110.962Z" fill="#0089D7"/>
<path d="M100.738 108.02C99.5001 108.793 98.1821 109.62 96.672 110.565C96.1531 109.089 95.7198 107.856 95.2761 106.595C96.179 106.03 97.0171 105.503 97.811 105.005C98.7062 105.929 99.6246 106.876 100.735 108.022L100.738 108.02Z" fill="#0089D7"/>
<path d="M110.584 65.1632V61.2094H114.564V65.1632H110.584Z" fill="#0089D7"/>
<path d="M52.3438 90.1159V86.175H56.3498V90.1159H52.3438Z" fill="#0089D7"/>
</g>
<defs>
<clipPath id="clip0_36_167">
<rect width="129" height="129" fill="white" transform="translate(6.5 7)"/>
</clipPath>
</defs>
</svg>
