<svg width="32" height="32" viewBox="0 0 32 32" fill="none" xmlns="http://www.w3.org/2000/svg">
<path d="M27.6132 4.87264C27.6132 4.87264 30.2032 3.86264 29.9866 6.3153C29.9152 7.3253 29.2679 10.8606 28.7639 14.684L27.0372 26.0106C27.0372 26.0106 26.8932 27.67 25.5979 27.9586C24.3032 28.2466 22.3606 26.9486 22.0006 26.66C21.7126 26.4433 16.6046 23.1966 14.8059 21.61C14.3019 21.1766 13.7259 20.3113 14.8779 19.3013L22.4319 12.0866C23.2952 11.2213 24.1586 9.2013 20.5612 11.654L10.4879 18.5073C10.4879 18.5073 9.33655 19.2293 7.17855 18.58L2.50122 17.1366C2.50122 17.1366 0.774553 16.0546 3.72455 14.9726C10.9199 11.582 19.7699 8.1193 27.6119 4.87264H27.6132Z" fill="#6B6B6B"/>
</svg>
