<svg width="141" height="142" viewBox="0 0 141 142" fill="none" xmlns="http://www.w3.org/2000/svg">
<g clip-path="url(#clip0_501_629)">
<path d="M105.917 118.452C105.795 120.47 104.361 121.595 102.9 121.188C101.495 120.796 100.106 120.295 98.7578 119.728C97.5518 119.222 97.0523 118.015 97.4015 116.849C97.7832 115.569 98.8593 114.818 100.207 115.165C101.714 115.552 103.233 116.034 104.605 116.747C105.287 117.102 105.645 118.076 105.917 118.447V118.452Z" fill="white"/>
<g clip-path="url(#clip1_501_629)">
<path d="M5 106.43C5.33504 105.852 5.69743 105.288 6.0017 104.693C15.3794 86.2619 24.7433 67.827 34.1244 49.3988C36.7261 44.2885 42.1893 43.4236 46.2576 47.4641C46.6439 47.8503 46.9174 48.346 47.3755 48.9715C47.7994 48.199 48.0285 47.8162 48.2268 47.4162C53.2455 37.3185 58.3121 27.2482 63.2386 17.106C64.5582 14.3919 66.2402 12.3101 69.2316 11.5034H71.7923C74.7974 12.2999 76.4692 14.3987 77.7854 17.1129C82.7015 27.2208 87.7545 37.2638 92.7561 47.3308C92.9647 47.7478 93.18 48.158 93.6518 49.0741C94.2672 48.2708 94.6775 47.5529 95.2552 47.0094C98.7936 43.6595 104.253 44.4628 106.554 48.7699C109.043 53.4256 111.382 58.1634 113.751 62.8807C114.499 64.371 114.031 65.8375 112.708 66.4972C111.385 67.157 109.963 66.6579 109.194 65.1607C106.992 60.8809 104.828 56.5841 102.643 52.2976C101.241 49.5424 100.103 49.351 97.9526 51.5045C96.9885 52.4685 96.0279 53.4393 95.0569 54.3964C93.1151 56.3141 91.3578 56.0098 90.1271 53.535C84.3631 41.9435 78.6059 30.3486 72.8487 18.7571C72.6778 18.4152 72.5239 18.0597 72.3256 17.735C71.4196 16.2515 69.5701 16.2309 68.712 17.7418C68.059 18.887 67.5154 20.0936 66.9274 21.2764C61.6044 31.9928 56.2848 42.7092 50.9652 53.4256C49.6627 56.044 47.9328 56.3414 45.8815 54.3041C44.9755 53.4017 44.073 52.4958 43.167 51.59C40.8901 49.3134 39.803 49.4945 38.3226 52.4069C31.3962 66.0358 24.4698 79.6646 17.54 93.2934C15.0888 98.1132 12.6238 102.93 10.1897 107.756C9.64609 108.836 9.0273 109.742 7.67005 109.797C6.31622 109.852 5.58461 109.028 5.00342 107.968C5.00342 107.455 5.00342 106.946 5.00342 106.433L5 106.43Z" fill="white"/>
<path d="M31.4611 97.5799C29.215 98.0927 27.1466 98.7045 25.0407 99.0019C23.4714 99.2241 22.3433 98.12 22.2304 96.6877C22.121 95.2965 23.1501 94.165 24.709 93.9565C29.15 93.3583 30.8594 91.6628 31.4782 87.2327C31.6936 85.6808 32.685 84.7066 34.0388 84.71C35.4063 84.7134 36.3738 85.6808 36.5721 87.2429C37.1225 91.5739 38.9208 93.348 43.3686 93.9565C44.9413 94.1719 45.9224 95.2726 45.8165 96.698C45.7105 98.1337 44.5925 99.2275 43.0097 99.0019C40.8969 98.7011 38.8285 98.0858 36.7499 97.6073C35.4234 104.208 39.2866 109.137 45.0438 109.742C45.3823 109.776 45.731 109.749 46.066 109.8C47.4575 110.023 48.3463 111.11 48.278 112.48C48.2096 113.831 47.1942 114.842 45.7652 114.863C43.0985 114.904 40.6336 114.172 38.3567 112.795C37.8507 112.487 37.3619 112.149 36.6576 111.687C36.5072 113.858 36.5379 115.847 37.1567 117.796C38.6747 122.581 42.8216 125.747 48.0352 126.068C49.0711 126.133 50.1241 126.29 50.5138 127.292C50.8078 128.044 50.8591 129.049 50.6164 129.808C50.2711 130.878 49.2181 131.237 48.1139 131.202C44.237 131.083 40.7772 129.821 37.7516 127.388C37.4576 127.152 37.1704 126.902 36.6542 126.475C36.6234 127.124 36.5858 127.552 36.5858 127.982C36.5824 131.65 36.5858 135.318 36.579 138.983C36.579 139.451 36.579 139.926 36.5106 140.384C36.3226 141.587 35.3345 142.445 34.1346 142.493C32.9448 142.541 31.8611 141.755 31.6013 140.575C31.485 140.042 31.4748 139.475 31.4713 138.924C31.4611 134.877 31.4645 130.83 31.4645 126.454C30.9551 126.865 30.6508 127.111 30.35 127.357C27.3346 129.808 23.8714 131.086 19.998 131.196C17.8168 131.257 16.463 129.343 17.3519 127.538C17.8852 126.458 18.8253 126.137 19.9843 126.072C24.4013 125.822 27.7654 123.792 29.991 119.956C31.4406 117.457 31.6149 114.719 31.3893 111.735C30.9483 112.019 30.6064 112.231 30.2714 112.453C27.9398 114.001 25.3825 114.836 22.5791 114.873C20.9587 114.894 19.8783 113.947 19.7997 112.504C19.7176 110.973 20.7228 109.903 22.3672 109.77C28.0936 109.308 31.4269 105.719 31.4611 99.983C31.4679 99.0942 31.4611 98.2021 31.4611 97.5833V97.5799Z" fill="white"/>
<path d="M97.6175 83.7187C95.4569 84.2349 93.4022 84.8741 91.2962 85.1817C89.6005 85.4279 88.4723 84.3579 88.3937 82.871C88.3082 81.3122 89.3202 80.2833 91.0945 80.1192C94.9645 79.7603 97.2996 77.4085 97.6141 73.5458C97.744 71.9597 98.7662 70.8932 100.161 70.8932C101.552 70.8932 102.595 71.9665 102.735 73.5424C103.084 77.47 105.337 79.7535 109.228 80.1158C110.971 80.2799 112.055 81.3703 111.956 82.8641C111.853 84.3853 110.698 85.4142 108.903 85.1749C107.241 84.9561 105.628 84.375 104.004 83.9204C103.617 83.811 103.269 83.5683 102.592 83.2333C102.759 85.4176 102.677 87.4002 103.108 89.2632C103.983 93.0644 107.498 95.7136 111.515 95.9323C113.354 96.0315 114.51 97.098 114.431 98.6225C114.352 100.164 113.152 101.111 111.289 101.043C108.629 100.947 106.195 100.123 103.973 98.6636C103.631 98.438 103.289 98.2055 102.732 97.8329C102.732 100.321 102.732 102.595 102.732 104.871C102.732 105.808 102.759 106.748 102.722 107.684C102.657 109.332 101.58 110.395 100.079 110.354C98.6295 110.313 97.6346 109.257 97.6243 107.65C97.6004 104.458 97.6175 101.261 97.6175 97.8466C97.1491 98.1406 96.8107 98.3422 96.4859 98.561C94.1372 100.168 91.5389 101.009 88.6945 101.046C87.0535 101.067 85.9083 100.017 85.8843 98.5473C85.8638 97.1458 86.9373 96.0725 88.4928 95.946C94.25 95.4777 97.6038 91.8338 97.6141 86.0397C97.6141 85.1886 97.6141 84.3374 97.6141 83.7119L97.6175 83.7187Z" fill="white"/>
<path d="M132.824 109.777C132.489 109.489 131.569 109.052 131.193 108.327C127.33 100.896 123.545 93.4233 119.771 85.9475C119.07 84.5596 119.576 83.0966 120.838 82.4471C122.116 81.7874 123.569 82.2181 124.294 83.6298C128.12 91.0818 131.925 98.5405 135.689 106.023C136.629 107.89 135.385 109.821 132.827 109.773L132.824 109.777Z" fill="white"/>
<path d="M73.6112 58.6386C73.6419 60.5972 71.2112 63.4618 69.7001 63.6703C68.5787 63.8241 67.6899 63.3798 67.1258 62.409C66.5583 61.4313 66.6471 60.4434 67.3514 59.5615C67.96 58.8026 68.6027 58.0643 69.2864 57.3704C70.0727 56.5739 71.0334 56.3415 72.083 56.7995C73.0676 57.2268 73.5838 58.0027 73.6077 58.6386H73.6112Z" fill="white"/>
<path d="M75.9667 101.019C76.794 101.443 77.4914 101.627 77.9393 102.065C78.7222 102.831 79.423 103.706 80.0213 104.622C80.7871 105.798 80.4555 107.203 79.3547 108.002C78.2812 108.785 76.8282 108.618 75.9188 107.568C75.2795 106.83 74.6641 106.071 74.0932 105.281C73.4881 104.451 73.365 103.47 73.9735 102.663C74.4658 102.01 75.259 101.583 75.9667 101.015V101.019Z" fill="white"/>
<path d="M65.5564 90.8014C66.3769 91.1193 66.9718 91.2013 67.3615 91.5295C68.2333 92.2644 69.0675 93.0643 69.7957 93.9394C70.6264 94.9375 70.4623 96.4177 69.5598 97.2928C68.6333 98.1884 67.2179 98.2943 66.206 97.4261C65.3718 96.7117 64.4521 95.9836 63.9257 95.0606C63.5257 94.3599 63.3923 93.2216 63.6795 92.4935C63.9633 91.7756 64.9308 91.3312 65.5564 90.8014Z" fill="white"/>
<path d="M58.8488 74.2534C58.1582 73.7133 57.3138 73.2894 56.8113 72.6092C56.1788 71.7546 56.3497 70.7086 57.0472 69.8984C57.7617 69.0644 58.5377 68.2645 59.3822 67.5637C60.336 66.7707 61.4163 66.7912 62.4351 67.509C63.365 68.1654 63.912 69.5361 63.259 70.4249C62.3291 71.6931 61.0779 72.7322 59.9223 73.8261C59.7411 73.997 59.3582 73.9526 59.0676 74.0073L58.8488 74.2534Z" fill="white"/>
<path d="M53.813 82.7103C54.0797 81.3942 54.8078 80.3516 55.8984 80.0918C57.0847 79.8115 58.1343 80.0918 58.7565 81.1925C59.2933 82.1463 59.7445 83.1615 60.1411 84.187C60.565 85.2945 60.0488 86.5456 59.03 87.1541C58.0625 87.7318 56.6403 87.6942 56.0078 86.7781C55.1395 85.5167 54.5309 84.0742 53.813 82.7069V82.7103Z" fill="white"/>
<path d="M82.3221 117.946C81.9871 118.756 81.5529 120.144 80.8589 121.388C80.2948 122.404 78.8384 122.623 77.7752 122.103C76.7017 121.576 76.1068 120.397 76.4385 119.211C76.7222 118.189 77.0949 117.184 77.5188 116.21C78.0042 115.092 79.1837 114.569 80.3871 114.836C81.5632 115.095 82.3426 116.104 82.3221 117.943V117.946Z" fill="white"/>
<path d="M73.9394 128.505C73.5736 129.319 73.43 129.924 73.0744 130.355C72.4317 131.137 71.6967 131.855 70.9309 132.525C69.8677 133.455 68.4386 133.39 67.4745 132.45C66.5036 131.5 66.3942 130.078 67.3173 129.001C68.0044 128.198 68.7668 127.449 69.5702 126.762C70.3805 126.068 71.4232 125.873 72.2813 126.495C72.965 126.991 73.4026 127.832 73.936 128.502L73.9394 128.505Z" fill="white"/>
<path d="M67.4231 46.9616C67.4709 45.584 68.623 44.4901 69.9974 44.5175C71.5358 44.5482 73.3888 46.5582 73.3307 48.1306C73.2794 49.4911 72.0931 50.626 70.7529 50.5884C69.2282 50.5474 67.3684 48.5203 67.4231 46.9616Z" fill="white"/>
<path d="M63.372 139.099C63.3446 140.623 61.4301 142.51 59.9224 142.5C58.4831 142.49 57.3686 141.3 57.4199 139.834C57.478 138.292 59.4096 136.46 60.9276 136.508C62.3224 136.552 63.3993 137.69 63.372 139.099Z" fill="white"/>
<path d="M119.34 74.4003C119.371 75.7506 118.226 76.9504 116.862 76.9983C115.477 77.0461 114.308 75.9557 114.253 74.5644C114.195 73.1116 115.327 71.9084 116.759 71.8981C118.12 71.8879 119.306 73.0399 119.337 74.3969L119.34 74.4003Z" fill="white"/>
</g>
</g>
<defs>
<clipPath id="clip0_501_629">
<rect width="141" height="142" fill="white"/>
</clipPath>
<clipPath id="clip1_501_629">
<rect width="131" height="131" fill="white" transform="translate(5 11.5)"/>
</clipPath>
</defs>
</svg>
