<svg width="141" height="142" viewBox="0 0 141 142" fill="none" xmlns="http://www.w3.org/2000/svg">
<path d="M105.917 118.452C105.795 120.47 104.361 121.595 102.9 121.188C101.495 120.796 100.106 120.295 98.7578 119.728C97.5518 119.222 97.0523 118.015 97.4015 116.849C97.7832 115.569 98.8593 114.818 100.207 115.165C101.714 115.552 103.233 116.034 104.605 116.747C105.287 117.102 105.645 118.076 105.917 118.447V118.452Z" fill="white"/>
<g clip-path="url(#clip0_501_668)">
<path d="M73.477 7.5C76.3892 8.21947 79.4426 8.59848 82.191 9.72266C92.8347 14.0716 99.2369 22.0212 101.253 33.3722C101.632 35.5145 101.703 37.7308 101.719 39.9149C101.777 47.4822 101.706 55.0527 101.767 62.6233C101.841 72.031 103.751 81.0758 107.344 89.7641C107.537 90.2331 107.89 90.6956 108.288 91.0072C111.971 93.8915 113.952 97.6494 113.974 102.329C114.022 112.835 113.994 123.342 113.994 133.845C113.994 134.044 113.952 134.24 113.923 134.5H28.0834C28.0481 134.282 27.9999 134.124 27.9999 133.967C28.0128 123.171 27.9614 112.376 28.077 101.584C28.122 97.3315 30.164 93.9429 33.4004 91.2256C33.9687 90.747 34.4889 90.095 34.7682 89.414C38.5216 80.3243 40.2875 70.8426 40.2522 61.0109C40.2265 53.7326 40.2522 46.4512 40.2458 39.1729C40.2425 29.4986 43.6845 21.3434 51.0146 14.9517C55.6895 10.8757 61.1638 8.52461 67.3156 7.74411C67.7169 7.69272 68.1151 7.58351 68.5132 7.5C70.1667 7.5 71.8203 7.5 73.4738 7.5H73.477ZM70.963 111.107C71.1813 110.931 71.3162 110.841 71.4286 110.728C80.8746 101.285 90.3206 91.8423 99.7378 82.3703C100.03 82.0748 100.178 81.4067 100.078 80.9891C98.858 75.8725 97.8788 70.7109 97.7953 65.4466C97.654 56.6394 97.6412 47.8323 97.6155 39.022C97.6058 35.9385 97.3008 32.9096 96.2991 29.99C91.21 15.2086 75.7759 7.97537 61.1574 13.4967C51.737 17.0555 44.6573 26.8487 44.4615 36.87C44.317 44.2285 44.378 51.5935 44.3876 58.9552C44.3973 66.2977 43.8033 73.5728 41.9186 80.6936C41.681 81.5962 41.9089 82.1133 42.5318 82.73C46.7379 86.8862 50.9087 91.0778 55.0891 95.263C55.3973 95.5713 55.6927 95.8925 55.7826 95.9857C54.8354 97.0649 53.9781 98.0445 52.9828 99.1783C48.735 94.9161 44.5385 90.7084 40.2939 86.4494C39.8572 87.6282 39.488 88.8102 38.9807 89.9279C38.5858 90.7952 38.8234 91.3219 39.4655 91.9579C49.0753 101.529 58.6562 111.13 68.2467 120.721C70.2727 122.748 71.7272 122.748 73.7532 120.721C79.571 114.904 85.3889 109.081 91.2068 103.261C95.0083 99.4578 98.8195 95.6709 102.589 91.839C102.926 91.4986 103.241 90.8144 103.132 90.4097C102.766 89.0671 102.2 87.7792 101.667 86.3595C91.4316 96.5991 81.2727 106.762 71.2423 116.799C66.59 112.148 62.0435 107.606 57.6416 103.206C58.4411 102.355 59.3369 101.407 60.2808 100.402C63.8223 103.948 67.3541 107.488 70.9662 111.104L70.963 111.107ZM48.3047 106.617C47.4282 107.764 46.5388 108.711 45.8967 109.803C43.2928 114.236 43.9542 119.124 47.913 122.857C49.7913 124.627 50.9793 126.416 50.4913 129.049C50.2761 130.202 50.7931 130.492 51.9168 130.488C64.641 130.45 77.3685 130.466 90.0927 130.463C90.5293 130.463 90.9628 130.414 91.4284 130.389C91.4605 130.058 91.5279 129.849 91.4926 129.656C90.9692 126.695 92.2118 124.643 94.3373 122.571C99.0732 117.952 98.5883 110.889 93.5282 106.768C93.2103 107.073 92.8796 107.375 92.5617 107.693C87.2158 113.041 81.8732 118.392 76.524 123.74C72.9826 127.28 69.0012 127.276 65.4534 123.727C60.1043 118.379 54.7616 113.028 49.4157 107.68C49.0978 107.366 48.7671 107.064 48.3047 106.624V106.617ZM109.775 130.414C109.855 130.206 109.909 130.129 109.909 130.055C109.909 120.634 109.977 111.21 109.864 101.793C109.829 98.7736 108.375 96.2715 106.085 94.505C102.936 97.6527 99.8534 100.733 96.7197 103.865C96.9733 104.192 97.2655 104.651 97.6347 105.03C103.167 110.735 103.286 120.049 96.8866 125.844C95.3615 127.225 95.4835 128.702 95.6794 130.414H109.778H109.775ZM35.9369 94.4632C33.3234 96.5734 32.0615 99.3967 32.0583 102.821C32.0583 111.58 32.0583 120.339 32.0583 129.101C32.0583 129.502 32.0583 129.907 32.0583 130.357H46.3109C46.6673 128.42 46.298 126.984 44.8307 125.548C38.894 119.738 38.7239 111.387 44.2142 105.194C44.622 104.735 44.9848 104.234 45.338 103.787C42.2107 100.688 39.138 97.6398 35.9369 94.4632Z" fill="white"/>
<path d="M93.7402 48.7927C93.5348 52.7916 93.7788 56.8739 93.0339 60.77C91.2294 70.2195 85.3955 76.3736 76.0522 78.5674C67.0075 80.6905 59.3242 77.8126 53.3779 70.6596C49.9745 66.5676 48.4783 61.724 48.4494 56.4275C48.4173 50.9704 48.4494 45.5133 48.4365 40.0562C48.4333 38.2415 48.9984 36.6741 50.1768 35.2833C54.0618 30.7031 58.5343 26.9355 64.3265 25.0083C70.4462 22.9687 76.3059 23.7717 81.8894 26.8552C85.8065 29.02 89.0718 31.9718 91.9165 35.415C93.021 36.7512 93.554 38.2576 93.5476 39.9759C93.5412 42.9117 93.5476 45.8474 93.5476 48.7831C93.6118 48.7831 93.676 48.7895 93.7402 48.7927ZM89.4089 53.1866C89.4089 51.5325 89.4732 49.8751 89.3768 48.2274C89.3383 47.6011 89.075 46.8527 88.6544 46.3998C83.9442 41.325 78.0332 38.2383 71.4929 36.234C71.2361 36.1569 70.9182 36.1345 70.6678 36.2116C63.9669 38.2608 57.9115 41.4085 53.0921 46.6311C52.8577 46.8848 52.6009 47.2542 52.6041 47.5657C52.6555 51.6128 52.405 55.7016 52.9091 59.694C53.9269 67.7496 60.9071 74.228 68.8665 74.9989C77.4232 75.8308 85.1996 71.0836 88.1856 63.3235C89.4571 60.0216 89.441 56.617 89.4025 53.1866H89.4089ZM52.6972 41.1772C60.4383 34.6056 69.4477 31.4161 79.3079 30.2663C75.439 28.1464 71.3709 27.4365 67.1135 28.4836C61.4626 29.8712 57.1987 33.3818 53.487 37.6987C52.6201 38.7072 52.4403 39.764 52.6972 41.1772ZM79.2887 34.4643C82.7466 36.6741 86.0505 38.7875 89.3576 40.9042C89.5534 39.7286 89.3961 38.5916 88.404 37.6216C87.4311 36.6709 86.5514 35.6302 85.5946 34.6634C85.357 34.4225 84.9717 34.172 84.6602 34.1816C82.8911 34.233 81.1284 34.3615 79.2887 34.4643Z" fill="white"/>
<path d="M62.8913 60.8888H66.7667C67.685 63.8117 68.9853 64.9519 71.2393 64.8459C73.246 64.7528 74.5913 63.4294 75.1403 60.9209H79.096C79.1634 65.257 75.5032 68.909 71.0595 68.9893C66.6607 69.0696 62.8432 65.3181 62.8913 60.8888Z" fill="white"/>
<path d="M62.7854 50.5592C62.7726 51.6417 61.7804 52.5988 60.7016 52.5699C59.5971 52.5378 58.7045 51.5742 58.7463 50.4597C58.788 49.3997 59.6935 48.51 60.7402 48.5004C61.8061 48.494 62.7982 49.4897 62.7854 50.5592Z" fill="white"/>
<path d="M83.2475 50.4982C83.27 51.6095 82.3517 52.5635 81.2504 52.5699C80.1684 52.5763 79.1955 51.6031 79.2084 50.5207C79.218 49.4928 80.1363 48.5517 81.1701 48.5068C82.2522 48.4586 83.2282 49.3965 83.2507 50.4982H83.2475Z" fill="white"/>
</g>
<defs>
<clipPath id="clip0_501_668">
<rect width="86" height="127" fill="white" transform="translate(28 7.5)"/>
</clipPath>
</defs>
</svg>
