<svg width="141" height="142" viewBox="0 0 141 142" fill="none" xmlns="http://www.w3.org/2000/svg">
<g clip-path="url(#clip0_501_676)">
<path d="M15.0972 125.893C13.4608 118.949 12.7949 112.033 13.0385 105.044C13.2862 97.9043 14.0171 90.8214 16.7133 84.1341C17.5539 82.0463 18.7071 79.9831 20.1323 78.2582C23.0682 74.7147 27.1409 74.7881 30.2473 78.1807C32.2451 80.3623 33.4145 83.0168 34.2998 85.7856C37.0488 94.3731 37.6822 103.205 37.1909 112.156C37.134 113.155 37.0691 114.154 36.996 115.316C38.8436 114.782 40.4881 114.296 42.1326 113.832C49.7665 111.666 57.5466 110.415 65.477 110.256C66.9022 110.227 67.7306 109.75 68.5021 108.531C75.9208 96.8237 83.4086 85.1617 90.876 73.4874C91.1765 73.0225 91.4607 72.5454 91.8099 71.9827C90.9694 71.42 90.1857 70.8736 89.3857 70.3557C80.0707 64.3208 70.7557 58.29 61.4407 52.2551C61.1849 52.0879 60.9291 51.9288 60.6774 51.7576C58.9516 50.5791 58.6877 49.3722 59.8368 47.6392C64.0923 41.2291 69.6188 36.2217 76.6314 33.0779C90.9775 26.6393 104.751 27.8585 117.92 36.4949C125.61 41.539 131.441 48.1244 134.698 56.7976C139.502 69.5932 138.352 81.9199 131.405 93.6799C130.207 95.7105 128.968 95.9797 127.011 94.7156C117.181 88.3585 107.354 81.9933 97.5272 75.6363C97.0643 75.3386 96.5933 75.0573 95.9842 74.6821C88.395 86.4421 80.8423 98.149 73.1718 110.043C75.3036 110.223 77.2202 110.309 79.1124 110.565C82.7223 111.055 86.3159 111.638 89.9136 112.188C90.3116 112.249 90.7095 112.347 91.0952 112.47C92.3743 112.882 93.1296 114.044 92.9306 115.267C92.7154 116.584 91.6069 117.518 90.1897 117.33C88.3868 117.098 86.6083 116.674 84.8176 116.356C75.4214 114.688 66.0008 114.504 56.5355 115.736C46.6724 117.016 37.1747 119.618 28.286 124.083C22.9545 126.758 17.8909 129.967 12.7096 132.944C12.6365 132.984 12.604 133.098 12.5025 133.262C19.6694 137.38 27.0881 138.391 34.6449 134.693C40.0577 132.046 45.5923 130.88 51.5491 131.647C54.7002 132.051 57.6279 133.111 60.454 134.538C66.1389 137.409 72.0145 137.58 77.9958 135.618C78.9054 135.321 79.7703 134.88 80.6311 134.452C88.9513 130.313 97.2633 130.322 105.6 134.412C112.47 137.784 119.349 137.702 126.215 134.383C126.349 134.318 126.467 134.224 126.585 134.134C126.621 134.106 126.634 134.045 126.707 133.902C123.235 131.843 119.763 129.767 116.275 127.724C114.529 126.701 112.746 125.734 110.976 124.752C109.498 123.932 108.982 122.656 109.624 121.359C110.273 120.05 111.654 119.577 113.12 120.368C115.97 121.905 118.776 123.528 121.578 125.159C125.123 127.223 128.627 129.359 132.193 131.39C132.785 131.728 133.597 131.794 134.308 131.794C135.721 131.794 137.138 131.561 138.547 131.602C140.05 131.647 140.976 132.646 141 133.979C141.024 135.366 140.034 136.511 138.49 136.475C134.361 136.377 130.71 137.816 127.011 139.472C119.333 142.913 111.532 142.836 103.967 139.109C98.2216 136.275 92.3784 135.716 86.2875 137.494C84.9881 137.873 83.7578 138.518 82.5274 139.105C74.5199 142.917 66.4881 142.999 58.5334 139.064C51.3583 135.517 44.301 135.472 37.1016 139.007C29.155 142.909 21.0947 142.897 13.1116 139.04C9.82656 137.453 6.47657 136.34 2.77738 136.418C1.04756 136.454 -0.0731604 135.309 0.00399084 133.861C0.0811421 132.389 1.22623 131.402 2.99665 131.594C4.71022 131.777 6.1233 131.333 7.54857 130.415C9.97274 128.854 12.4863 127.439 15.0972 125.881V125.893ZM84.0055 60.9935C90.6202 51.5333 97.6937 42.6807 107.792 36.7355C92.484 30.1501 73.9068 36.0219 65.1237 48.8135C71.4014 52.8626 77.6791 56.9117 84.0095 60.9935H84.0055ZM121.367 45.4984C120.287 57.3317 115.012 67.4321 109.258 77.4345C115.597 81.4999 121.846 85.5042 128.099 89.5166C136.241 75.7505 133.407 56.3694 121.367 45.5025V45.4984ZM105.222 74.5883C109.607 67.2608 113.262 59.815 115.361 51.6883C116.109 48.7891 116.726 45.8287 116.173 42.8071C115.739 40.4217 114.61 39.7448 112.271 40.3116C109.855 40.8988 107.813 42.22 105.892 43.7165C100.341 48.0469 95.635 53.2092 91.4242 58.8323C90.2831 60.3533 89.2314 61.9395 88.0782 63.5868C93.8605 67.2975 99.4723 70.8981 105.222 74.5843V74.5883ZM19.4827 122.929C23.4783 121.053 27.3683 119.243 31.2299 117.379C31.5426 117.228 31.8228 116.727 31.8715 116.352C32.0705 114.892 32.2126 113.424 32.2979 111.956C32.7445 104.351 32.2776 96.8197 30.3041 89.431C29.5813 86.7275 28.6758 84.0729 26.942 81.8221C25.7035 80.2196 24.5178 80.1462 23.4377 81.8506C22.3129 83.6326 21.3465 85.5694 20.644 87.5553C18.8857 92.5259 18.3051 97.7331 18.0168 102.973C17.6432 109.705 18.0696 116.376 19.4786 122.933L19.4827 122.929Z" fill="white"/>
<path d="M29.1429 36.6825C29.1429 38.0322 29.1632 39.5491 29.1389 41.066C29.1105 42.8398 28.1481 43.8836 26.6294 43.8469C25.1717 43.8102 24.2865 42.799 24.258 41.0782C24.2337 39.5573 24.254 38.0322 24.254 36.6214C22.1953 35.7814 20.2421 34.9821 18.1022 34.1095C17.0424 35.1534 15.8486 36.3889 14.5817 37.5429C13.6396 38.4033 12.6244 38.4481 11.654 37.8202C10.7363 37.2289 10.2612 36.0423 10.6551 35.0229C10.85 34.5214 11.2276 34.0687 11.5971 33.6691C12.592 32.5926 13.6274 31.5569 14.5451 30.6109C13.7086 28.5435 12.9331 26.627 12.0478 24.4333C11.0489 24.4333 9.79828 24.4373 8.55167 24.4333C8.04816 24.4333 7.53653 24.4414 7.03707 24.368C5.66865 24.1682 4.79157 23.1814 4.81187 21.9092C4.83217 20.6451 5.7458 19.6135 7.11829 19.5442C8.78313 19.4585 10.4561 19.5238 12.0803 19.5238C12.9331 17.4279 13.7492 15.4298 14.671 13.1667C13.7249 12.2696 12.596 11.2543 11.5281 10.1778C10.2896 8.93413 10.2043 7.44578 11.2398 6.41414C12.2752 5.38249 13.599 5.45181 14.8821 6.61394C15.4466 7.12365 15.9826 7.66598 16.5348 8.19199C17.083 8.71393 17.6312 9.23995 18.1022 9.68849C20.1447 8.84034 22.0856 8.03704 24.258 7.13588C24.258 5.87589 24.2459 4.36716 24.258 2.85435C24.2783 1.07242 25.2001 0 26.6944 0C28.1887 0 29.1145 1.06834 29.1389 2.85843C29.1592 4.33046 29.1389 5.79841 29.1389 7.30714C30.2393 7.68229 31.3032 7.97588 32.3143 8.40811C33.2807 8.81995 34.1862 9.37451 35.2176 9.91684C36.4033 8.76286 37.6012 7.60481 38.799 6.44268C40.1147 5.16638 41.4587 5.05221 42.5348 6.12055C43.5702 7.14812 43.4606 8.66092 42.2221 9.87198C41.0648 11.0056 39.8791 12.1106 38.795 13.1504C39.6761 15.332 40.4679 17.2811 41.3653 19.5034C42.3317 19.5034 43.5337 19.4993 44.7316 19.5034C45.2879 19.5034 45.8482 19.4871 46.4005 19.5564C47.6795 19.7236 48.5485 20.6778 48.5851 21.8888C48.6175 23.0999 47.8095 24.1845 46.5345 24.3232C45.1823 24.47 43.8057 24.4455 42.4414 24.4251C41.5805 24.4129 41.142 24.5964 40.874 25.5791C40.4192 27.2224 39.6517 28.78 38.933 30.5824C39.9401 31.6181 41.142 32.768 42.2424 34.0035C43.5824 35.5122 43.0058 37.5959 41.1664 38.1342C40.1674 38.4277 39.3919 38.0037 38.6935 37.3553C38.1006 36.8008 37.5199 36.234 36.9312 35.6753C36.3464 35.1208 35.7576 34.5744 35.3029 34.1462C33.1995 35.0148 31.2463 35.8181 29.1429 36.6866V36.6825ZM26.7309 12.237C21.3141 12.2329 16.9815 16.5756 16.9855 21.9989C16.9936 27.3284 21.3385 31.6752 26.6579 31.6792C32.0747 31.6792 36.4155 27.3284 36.3992 21.9133C36.383 16.5716 32.0544 12.2411 26.7269 12.237H26.7309Z" fill="white"/>
<path d="M105.917 118.452C105.795 120.47 104.361 121.595 102.9 121.188C101.495 120.796 100.106 120.295 98.7578 119.728C97.5518 119.222 97.0523 118.015 97.4015 116.849C97.7832 115.569 98.8593 114.818 100.207 115.165C101.714 115.552 103.233 116.034 104.605 116.747C105.287 117.102 105.645 118.076 105.917 118.448V118.452Z" fill="white"/>
</g>
<defs>
<clipPath id="clip0_501_676">
<rect width="141" height="142" fill="white"/>
</clipPath>
</defs>
</svg>
