<svg width="141" height="142" viewBox="0 0 141 142" fill="none" xmlns="http://www.w3.org/2000/svg">
<path d="M105.917 118.452C105.795 120.47 104.361 121.595 102.9 121.188C101.495 120.796 100.106 120.295 98.7578 119.728C97.5518 119.222 97.0523 118.015 97.4015 116.849C97.7832 115.569 98.8593 114.818 100.207 115.165C101.714 115.552 103.233 116.034 104.605 116.747C105.287 117.102 105.645 118.076 105.917 118.448V118.452Z" fill="white"/>
<g clip-path="url(#clip0_501_624)">
<path d="M24.3173 39.1847C24.3173 35.2966 24.302 31.6169 24.3173 27.9334C24.3821 16.1137 33.9791 6.79895 45.8531 7.54171C49.8086 7.78803 53.6458 7.78424 57.5975 7.54171C69.4754 6.80653 79.0532 16.0986 79.1295 27.941C79.1524 31.6245 79.1295 35.3041 79.1295 39.1884C79.7055 39.1884 80.209 39.1884 80.7087 39.1884C85.2782 39.1884 89.844 39.1847 94.4136 39.1884C96.5916 39.1884 97.3163 39.9009 97.4231 42.0306C97.8923 51.425 98.3691 60.8193 98.8459 70.2137C98.8535 70.3956 98.8917 70.5775 98.9451 70.9564H100.604C110.644 70.9564 120.683 70.9564 130.722 70.9564C133.198 70.9564 133.801 71.5287 133.995 73.9919C135.387 91.7991 136.78 109.61 138.176 127.417C138.29 128.876 138.431 130.339 138.492 131.802C138.569 133.534 137.684 134.436 135.948 134.496C135.616 134.508 135.281 134.496 134.949 134.496C91.6482 134.496 48.3477 134.496 5.04721 134.496C1.98429 134.496 1.36255 133.863 1.51894 130.817C2.61747 109.197 3.72745 87.5775 4.82598 65.958C5.2303 57.9809 5.62699 50.0039 6.01987 42.023C6.12286 39.8971 6.8514 39.1922 9.03702 39.1884C14.072 39.1809 19.1069 39.1884 24.3135 39.1884L24.3173 39.1847ZM24.3173 43.7814H10.4941C9.04846 72.5026 7.61045 101.175 6.16481 129.865H56.4456C56.5753 128.425 56.7088 127.069 56.8117 125.712C58.0857 109.08 59.3559 92.4471 60.6337 75.8147C60.8829 72.5733 62.6553 70.9527 65.9509 70.9527H76.0475C75.586 61.797 75.1359 52.8044 74.682 43.8345H65.4284C65.4284 45.9301 65.436 47.9158 65.4284 49.8978C65.4207 51.713 64.6159 52.7475 63.2046 52.7854C61.7437 52.8271 60.8702 51.7509 60.8664 49.875C60.8588 47.859 60.8664 45.8429 60.8664 43.8193H28.8869C28.8869 48.4994 28.8678 53.081 28.9212 57.6588C28.925 58.0643 29.295 58.5949 29.6536 58.8488C31.1564 59.925 32.7089 60.9368 34.2651 61.9335C35.2721 62.5777 35.7604 63.4152 35.7527 64.6354C35.7222 70.3539 35.7451 76.0762 35.7337 81.7946C35.7298 83.7425 34.9098 84.5534 32.9568 84.561C28.7229 84.5762 24.489 84.5762 20.2512 84.561C18.2906 84.5534 17.4744 83.7463 17.4705 81.7984C17.4591 76.08 17.482 70.3577 17.4515 64.6392C17.4438 63.419 17.9206 62.5815 18.9353 61.9411C20.4991 60.952 22.0478 59.9364 23.5544 58.8639C23.913 58.61 24.2792 58.0757 24.283 57.6664C24.3326 53.0848 24.3135 48.5032 24.3135 43.7776L24.3173 43.7814ZM65.2567 75.5684C63.853 93.6901 62.457 111.747 61.0571 129.865H115.496C114.088 111.698 112.692 93.637 111.292 75.5684H65.2567ZM42.3248 39.1089H60.7825C60.7825 34.7433 61.0533 30.4345 60.7138 26.1788C60.2866 20.8621 57.4373 16.8337 52.8296 14.0522C52.0362 13.5747 51.3877 13.5937 50.6058 14.0636C46.8601 16.3222 43.9116 19.4334 43.2708 23.7156C42.5156 28.7557 42.6071 33.9209 42.3248 39.1127V39.1089ZM115.873 75.5759C117.155 92.144 118.433 108.617 119.741 125.488C121.389 123.04 122.827 120.99 124.154 118.868C124.494 118.33 124.654 117.553 124.597 116.913C123.738 107.886 122.834 98.8591 121.93 89.8361C121.457 85.0991 120.958 80.366 120.462 75.5759H115.873ZM74.5141 39.124C74.5141 34.8153 74.7545 30.6088 74.4607 26.4365C73.9725 19.5243 68.9528 13.965 62.1442 12.3886C60.8664 12.093 59.5276 12.0513 58.2154 11.8959C60.6986 14.4425 62.8461 17.0194 63.8721 20.2103C64.6846 22.7379 65.1919 25.4247 65.3712 28.0698C65.6191 31.7192 65.4322 35.3989 65.4322 39.1278H74.5141V39.124ZM45.4831 12.0892C37.9689 11.3389 30.1647 17.4514 29.2378 25.0458C28.7076 29.3772 28.9746 33.8035 28.8907 38.188C28.8831 38.4987 28.9594 38.8095 28.9937 39.0748H38.0223C38.0223 35.8006 37.9727 32.6363 38.0413 29.4758C38.0833 27.5507 38.1367 25.5952 38.4914 23.708C39.3573 19.0961 41.7603 15.3103 45.4831 12.093V12.0892ZM133.232 122.972C132.008 107.17 130.787 91.3671 129.567 75.5835H125.07C125.272 77.5541 125.47 79.4299 125.657 81.302C126.74 92.1591 127.976 103.005 128.819 113.881C129.105 117.595 130.871 120.297 133.232 122.972ZM22.0325 79.9415H31.1679C31.1679 78.96 31.1679 78.0695 31.1679 77.1789C31.1679 73.5409 31.1717 69.9067 31.1679 66.2687C31.1679 65.3251 27.1437 62.123 26.3732 62.5512C24.9276 63.3584 23.5849 64.3436 22.2309 65.3024C22.063 65.4199 22.0401 65.8102 22.0401 66.0755C22.0287 70.6533 22.0325 75.2349 22.0325 79.9415ZM80.6171 70.8655H85.4423C84.9006 61.7781 84.3666 52.793 83.8364 43.8345H79.2592C79.7169 52.9029 80.167 61.8577 80.6171 70.8655ZM88.4175 43.7966C88.9553 52.8915 89.4893 61.8994 90.0233 70.8769H94.3183C93.8605 61.8046 93.4104 52.8158 92.9565 43.7966H88.4213H88.4175ZM127.095 122.703C125.417 125.208 123.895 127.486 122.319 129.839H131.89C130.261 127.417 128.743 125.159 127.095 122.703Z" fill="white"/>
<path d="M101.974 96.3996C101.974 99.238 102.001 102.073 101.97 104.911C101.894 111.372 96.9542 116.284 90.4469 116.325C88.2651 116.34 86.0451 116.42 83.9053 116.071C78.5575 115.207 74.6555 110.626 74.5906 105.26C74.5182 99.257 74.5639 93.2505 74.5716 87.2478C74.5716 85.5842 75.4794 84.5686 76.864 84.5799C78.2448 84.5913 79.1221 85.6069 79.1259 87.2819C79.1373 93.0042 79.1259 98.7226 79.1335 104.445C79.1411 108.97 81.9714 111.781 86.5219 111.8C87.8531 111.804 89.1881 111.819 90.5194 111.797C94.4367 111.721 97.3661 108.837 97.3966 104.941C97.4386 99.1281 97.3737 93.3111 97.45 87.4979C97.4615 86.6869 97.7971 85.6751 98.3578 85.1408C98.8003 84.7164 100.029 84.5458 100.524 84.8604C101.2 85.2924 101.875 86.2701 101.913 87.0469C102.069 90.1582 101.978 93.2846 101.978 96.4034L101.974 96.3996Z" fill="white"/>
</g>
<defs>
<clipPath id="clip0_501_624">
<rect width="137" height="127" fill="white" transform="translate(1.5 7.5)"/>
</clipPath>
</defs>
</svg>
