<svg width="141" height="142" viewBox="0 0 141 142" fill="none" xmlns="http://www.w3.org/2000/svg">
<g clip-path="url(#clip0_501_621)">
<g clip-path="url(#clip1_501_621)">
<path d="M1.5 60.3333C1.81227 58.8059 2.06067 57.26 2.44747 55.7513C5.94281 42.1057 17.3799 33.161 30.8964 33.5549C41.0453 33.8484 49.3525 38.1034 55.6796 46.4796C55.8145 46.6579 55.9635 46.8177 56.1906 47.089C56.7868 46.3383 57.3368 45.636 57.8975 44.9411C67.7128 32.7968 85.8531 29.7719 98.2235 38.5233C106.935 44.6884 111.03 53.5774 110.881 64.5957C110.878 64.9636 110.832 65.3352 110.768 65.6994C110.498 67.249 109.373 68.2226 107.996 68.1111C106.605 67.9996 105.722 66.8737 105.604 65.2869C105.402 62.5295 105.448 59.6867 104.803 57.0371C101.971 45.4316 91.4634 37.9139 80.0832 39.0659C70.651 40.0209 63.4829 44.6549 58.7136 53.2801C57.3084 55.8219 55.0302 55.7476 53.5895 53.1351C47.0282 41.2398 33.3697 35.9332 21.4572 40.649C11.5779 44.5583 5.40698 55.755 6.92577 66.8328C8.47649 78.1558 13.2813 87.9552 19.7539 96.9445C28.5685 109.182 39.8246 118.264 53.0785 124.682C55.0373 125.629 57.0316 125.759 58.9833 124.819C61.2651 123.719 63.4829 122.471 65.6014 121.352C64.8349 118.896 63.8804 116.636 63.4368 114.273C62.209 107.714 63.5433 101.515 66.6766 95.8111C72.8086 84.6479 82.12 77.7693 94.0503 75.2201C107.258 72.3995 119.529 75.3093 130.597 83.4401C133.003 85.209 135.086 87.3644 136.502 90.118C138.347 93.7115 137.698 95.7071 134.018 97.1081C129.774 98.7246 126.179 101.226 123.606 105.124C122.155 107.324 120.899 109.68 119.689 112.039C117.329 116.629 114.671 120.992 111.24 124.789C106.367 130.182 100.661 134.08 93.5216 135.169C84.2705 136.581 76.4565 133.429 69.8491 126.677C69.5368 126.358 69.2919 125.967 69.0506 125.659C66.5595 126.986 64.2494 128.238 61.918 129.446C58.0962 131.426 54.285 131.367 50.4313 129.435C32.1242 120.248 17.756 106.658 8.10744 87.8363C4.78243 81.348 2.45102 74.4768 1.71291 67.0892C1.68098 66.7807 1.57097 66.4797 1.5 66.175C1.5 64.2278 1.5 62.2805 1.5 60.3333ZM72.8795 121.898C73.0144 122.106 73.0925 122.277 73.2131 122.407C78.7276 128.361 85.3457 131.081 93.259 129.691C99.0006 128.684 103.511 125.336 107.432 121.006C111.19 116.859 113.827 111.947 116.332 106.922C119.65 100.27 124.316 95.0605 131.207 92.3849C131.317 92.3403 131.41 92.2436 131.747 92.0021C130.416 90.6754 129.249 89.267 127.861 88.1671C120.736 82.5334 112.599 79.9098 103.741 79.7389C92.127 79.5196 82.3897 83.9938 74.7887 93.1764C70.2962 98.6019 67.6809 104.897 68.458 112.296C68.6213 113.838 69.1429 115.339 69.59 117.231C70.2146 116.361 70.5304 115.923 70.8462 115.481C74.668 110.167 78.8518 105.176 83.8908 101.114C87.0667 98.5536 90.5089 96.3425 93.9013 94.0868C95.232 93.2024 96.7437 93.7375 97.4712 95.0419C98.2306 96.4057 97.8047 97.9405 96.3995 98.8472C96.0233 99.0887 95.6259 99.2931 95.2391 99.5235C85.9809 104.997 78.905 112.853 72.8831 121.891L72.8795 121.898Z" fill="white"/>
</g>
</g>
<defs>
<clipPath id="clip0_501_621">
<rect width="141" height="142" fill="white"/>
</clipPath>
<clipPath id="clip1_501_621">
<rect width="141" height="149" fill="white" transform="translate(-3.5 9.5)"/>
</clipPath>
</defs>
</svg>
