<svg width="129" height="129" viewBox="0 0 129 129" fill="none" xmlns="http://www.w3.org/2000/svg">
<g clip-path="url(#clip0_501_646)">
<path d="M0 120.171C0 88.5978 0 57.0217 0 25.4456C0.0518916 25.3833 0.132324 25.3263 0.15308 25.2536C1.78507 19.3488 5.34224 16.6377 11.4706 16.6377C44.5386 16.6377 77.6039 16.6377 110.672 16.6377C111.201 16.6377 111.733 16.6377 112.364 16.6377C112.364 16.0306 112.364 15.5792 112.364 15.1252C112.364 11.0961 112.402 7.06707 112.34 3.0406C112.322 1.77974 112.584 0.752368 113.632 0C115.814 0 117.999 0 120.181 0C120.326 0.0726424 120.464 0.173823 120.617 0.212739C125.874 1.48139 128.992 5.40667 128.995 10.8367C129.003 41.0663 129.003 71.2934 128.982 101.523C128.982 102.6 128.855 103.713 128.569 104.75C127.269 109.475 123.227 112.352 117.976 112.352C84.7624 112.354 51.5517 112.352 18.3385 112.352C17.8066 112.352 17.2747 112.352 16.6365 112.352C16.6365 112.949 16.6365 113.403 16.6365 113.854C16.6365 118.093 16.6468 122.335 16.6313 126.574C16.6261 128.198 15.8581 128.958 14.2391 128.982C12.8536 129 11.4681 129.01 10.0825 128.971C5.68732 128.852 1.81621 125.905 0.490376 121.702C0.329512 121.191 0.163459 120.68 0 120.169L0 120.171ZM16.6728 68.6679C17.8014 68.6679 18.8185 68.7846 19.7993 68.6445C22.6351 68.2424 24.6485 69.3502 26.623 71.3919C28.4236 73.2547 29.5627 75.0604 29.1475 77.6729C28.626 80.947 29.516 83.6166 32.3103 85.6299C32.8656 86.0294 33.1743 87.049 33.234 87.8091C33.3663 89.5629 33.3845 91.3427 33.2288 93.0913C33.1562 93.9267 32.7592 94.871 32.2091 95.504C30.8911 97.0218 29.2876 98.2956 28.0007 99.8341C26.5711 101.544 24.9028 102.185 22.7052 102.003C20.7229 101.84 18.7173 101.969 16.7039 101.969V108.165C17.3033 108.165 17.8377 108.165 18.3696 108.165C51.4506 108.165 84.5315 108.165 117.612 108.165C118.074 108.165 118.536 108.17 118.998 108.141C122.324 107.931 124.849 105.215 124.818 101.889C124.786 98.5187 122.145 95.8206 118.764 95.7272C117.675 95.696 116.582 95.7168 115.49 95.7168C112.934 95.7168 112.361 95.1512 112.361 92.6399C112.361 69.2594 112.361 45.8763 112.361 22.4958V20.9314H66.5562C66.5562 21.9899 66.4836 22.955 66.5744 23.9071C66.7041 25.2848 66.3097 26.4159 65.1837 27.2046C62.8174 28.865 61.9846 31.1065 62.4282 33.9188C62.6773 35.4936 61.8912 36.591 60.926 37.826C58.4974 40.9314 55.5474 42.0729 51.6425 41.676C49.8082 41.4892 48.2722 41.2505 47.1799 39.7095C45.8385 37.8182 44.0456 37.071 41.7676 37.4757C41.2071 37.5743 40.4833 37.4809 40.1148 37.7974C38.7579 38.9675 37.5177 40.275 36.1711 41.5904C37.7564 43.1626 39.2768 44.5532 40.6389 46.0838C41.1449 46.6494 41.4951 47.5263 41.5496 48.2865C41.6794 50.0818 41.682 51.9004 41.5496 53.6957C41.4925 54.4559 41.1345 55.338 40.6208 55.8958C38.859 57.8104 37.0195 59.6576 35.0995 61.4114C34.5105 61.951 33.5869 62.3194 32.7825 62.3895C31.0727 62.5348 29.3343 62.5425 27.6271 62.3895C26.7865 62.3142 25.8472 61.9147 25.2064 61.3673C23.8053 60.1739 22.4302 58.8949 21.2937 57.455C19.9601 55.766 18.3359 56.2019 16.6728 56.2486V68.6704V68.6679ZM62.3244 20.825C61.7251 20.825 61.2269 20.825 60.7262 20.825C44.2765 20.825 27.8269 20.825 11.3772 20.825C10.9569 20.825 10.5366 20.8172 10.1189 20.8406C6.71478 21.017 4.14874 23.7255 4.17987 27.1008C4.2136 30.4657 6.85229 33.1639 10.2304 33.2625C11.3202 33.2936 12.4125 33.2728 13.5022 33.2754C16.0605 33.2754 16.6365 33.8384 16.6365 36.3472C16.6365 41.0897 16.6365 45.8296 16.6365 50.5721C16.6365 51.0183 16.6365 51.4672 16.6365 52.012C17.8922 52.012 18.9794 52.0535 20.0639 52.0016C21.1977 51.9471 22.0669 52.3389 22.8453 53.1691C24.1063 54.5181 25.4944 55.7453 26.732 57.1125C27.5 57.9583 28.3406 58.1684 29.4537 58.2878C31.685 58.529 33.3507 57.8286 34.6403 56.0566C34.7881 55.8543 34.9672 55.6649 35.1696 55.5196C37.1362 54.1264 37.9224 52.2351 37.4502 49.8846C37.3127 49.2023 37.0792 48.4317 36.6329 47.9362C35.2552 46.4133 33.7477 45.0072 32.2999 43.5491C30.8003 42.0392 30.8133 41.1571 32.3441 39.6213C33.4701 38.4901 34.5858 37.3512 35.7274 36.2382C39.3806 32.6787 37.7745 33.4856 42.9066 33.2235C45.5712 33.0886 47.6754 33.6905 49.2296 35.888C50.2 37.2604 51.5102 37.7403 53.1474 37.4861C53.9206 37.3668 54.9403 37.6236 55.441 37.2111C57.0211 35.9165 58.7595 34.6323 58.2587 32.0794C57.7398 29.4202 58.6116 27.1994 60.887 25.6583C62.6488 24.4649 62.6047 22.789 62.3218 20.8276L62.3244 20.825ZM124.836 93.6179C124.836 92.8137 124.836 92.3156 124.836 91.8148C124.836 82.4543 124.836 73.0913 124.836 63.7308C124.836 46.1824 124.784 28.6341 124.872 11.0883C124.895 6.58192 121.463 3.34155 116.598 4.34557V91.4983C119.483 91.4309 122.213 91.7189 124.836 93.6179ZM4.1643 35.3613C4.1643 36.1707 4.1643 36.6689 4.1643 37.167C4.1643 43.5906 4.1643 50.0143 4.1643 56.4354C4.1643 76.9231 4.21101 97.4109 4.12798 117.896C4.10982 122.377 7.5191 125.645 12.4021 124.641V37.4887C9.51433 37.5587 6.78743 37.2656 4.1643 35.3613ZM16.7221 72.8085V97.7689C17.2618 97.7689 17.7158 97.7715 18.1724 97.7689C20.1417 97.756 22.3523 98.2956 24.018 97.5744C25.7772 96.8116 27.0174 94.8529 28.4755 93.4052C28.709 93.1717 29.0853 92.8811 29.0723 92.6321C28.9763 90.6448 29.957 88.4084 27.7776 86.87C25.4451 85.2251 24.4851 82.9836 24.9495 80.1402C25.0299 79.6498 24.8924 79.1232 24.9728 78.6354C25.3205 76.5314 24.6174 74.8892 22.8894 73.6776C22.4328 73.3585 21.9528 72.8863 21.4572 72.85C19.9186 72.741 18.367 72.8111 16.7273 72.8111L16.7221 72.8085Z" fill="white"/>
<path d="M60.3033 84.3119C60.2904 86.5457 59.3563 89.3736 57.5686 91.9083C55.0078 95.5404 52.421 99.1518 49.8238 102.758C48.5914 104.47 47.1099 104.462 45.8801 102.745C43.2154 99.0324 40.5093 95.351 37.938 91.5736C34.5625 86.6132 34.5236 80.4282 37.6993 75.9918C40.8829 71.5424 46.6351 69.646 51.762 71.3556C56.9433 73.0835 60.3993 77.9635 60.3033 84.3145V84.3119ZM47.7689 98.3501C48.031 98.0569 48.1789 97.9194 48.293 97.7586C50.2908 94.9567 52.338 92.1885 54.2528 89.3321C54.9403 88.3073 55.4826 87.1165 55.8043 85.9256C56.7254 82.4985 56.0612 79.3904 53.3265 76.988C50.8513 74.8139 47.9479 74.2977 44.863 75.4781C39.9385 77.3668 37.938 83.1237 40.7765 88.1023C42.7977 91.6488 45.3715 94.8788 47.7689 98.3501Z" fill="white"/>
<path d="M91.529 60.2465H87.4399V45.5286C80.5643 42.6852 79.4927 33.3844 83.4417 28.2138C86.7679 23.8552 92.3359 23.9045 95.5766 28.3305C98.6667 32.5542 98.5214 38.9156 95.1822 42.8435C94.5673 43.5647 93.8356 44.3456 92.9898 44.6751C91.5991 45.2199 91.4901 46.1409 91.5057 47.3966C91.5627 51.628 91.529 55.8594 91.529 60.2439V60.2465ZM87.4685 40.6279V37.5743H91.5835V40.4411C94.2196 38.5368 94.505 31.9341 91.0698 29.6485C89.91 28.8779 88.5893 29.0025 87.4711 29.9339C84.7416 32.2065 84.5989 37.9245 87.4711 40.6279H87.4685Z" fill="white"/>
<path d="M72.7833 51.7811V60.2387H68.7669C68.7332 59.8599 68.6735 59.4993 68.6735 59.1387C68.6631 57.4186 68.5801 55.6908 68.6968 53.9785C68.798 52.5023 68.4919 51.6695 66.9455 50.969C63.3364 49.3346 61.6915 45.2588 62.7423 41.4425C63.749 37.787 67.3139 35.1771 71.032 35.3716C75.0432 35.5818 78.2293 38.3604 78.9143 42.2493C79.5889 46.0838 77.5522 49.8145 73.9457 51.3322C73.6006 51.4775 73.2452 51.602 72.7859 51.7811H72.7833ZM72.8819 43.6736V47.1786C74.7344 45.8218 75.3104 44.0265 74.6151 42.213C73.9249 40.4151 72.1606 39.3488 70.2328 39.5616C68.4192 39.7613 66.9611 41.183 66.6316 43.0717C66.3488 44.688 67.1531 46.3251 68.6709 47.0204C68.6709 46.1383 68.6138 45.3055 68.702 44.4857C68.7332 44.1951 69.1094 43.7281 69.3559 43.71C70.469 43.6269 71.5924 43.6736 72.8845 43.6736H72.8819Z" fill="white"/>
<path d="M85.3125 103.98H81.2261V99.8522C82.3859 99.8522 83.543 99.8211 84.695 99.8808C84.9104 99.8911 85.2736 100.249 85.284 100.462C85.3437 101.616 85.3125 102.773 85.3125 103.982V103.98Z" fill="white"/>
<path d="M64.5454 103.982V99.9301H68.5852V103.982H64.5454Z" fill="white"/>
<path d="M76.9087 103.977H72.9104V99.9353H76.9087V103.977Z" fill="white"/>
<path d="M98.5345 68.5901H94.282V64.5844H98.2154C98.3192 65.8867 98.4229 67.1969 98.5345 68.5901Z" fill="white"/>
<path d="M72.3861 66.6312C73.4162 67.9025 74.2464 68.9247 75.0663 69.9365C74.4255 70.7848 73.8313 71.5735 73.1723 72.4478C71.9865 71.9549 70.7723 71.449 69.27 70.8263C70.3312 69.3968 71.299 68.0945 72.3861 66.6338V66.6312Z" fill="white"/>
<path d="M92.7615 82.9447C94.0588 84.1096 95.2237 85.1551 96.3861 86.198C96.2875 86.3771 96.1889 86.5561 96.0903 86.7351C94.9669 87.4148 93.8434 88.0971 92.8627 88.6886C92.0454 87.8507 91.3241 87.1113 90.5327 86.2992C91.1606 85.3549 91.8741 84.2782 92.7615 82.9447Z" fill="white"/>
<path d="M103.547 67.1917C102.652 65.8037 101.954 64.7218 101.246 63.6244C101.941 62.8694 102.611 62.143 103.384 61.3076C104.486 61.9095 105.638 62.5374 107.089 63.3312C105.882 64.644 104.787 65.8374 103.545 67.1917H103.547Z" fill="white"/>
<path d="M68.5073 76.054C70.1186 75.8724 71.3899 75.7271 72.708 75.5792C73.0712 76.534 73.4215 77.4524 73.8314 78.5212C72.8091 79.2347 71.7324 79.9845 70.3599 80.9392C69.7216 79.258 69.1534 77.7533 68.5073 76.054Z" fill="white"/>
<path d="M97.9169 91.4672C97.6912 93.2365 97.4888 94.8113 97.2682 96.5418C95.7556 95.9917 94.518 95.5403 93.3037 95.0967C93.4568 94.0096 93.5943 93.0264 93.75 91.9056C94.9928 91.7759 96.2693 91.641 97.9169 91.4672Z" fill="white"/>
<path d="M77.923 68.5901C77.7024 67.2929 77.4897 66.032 77.251 64.6233H81.6644V68.5901H77.923Z" fill="white"/>
<path d="M85.9612 68.5718V64.5687H89.9491V68.5718H85.9612Z" fill="white"/>
<path d="M79.2982 85.4717C77.6298 85.1059 76.0861 84.766 74.3347 84.382C75.043 82.9551 75.6113 81.8136 76.195 80.6357C77.2432 80.8459 78.2422 81.0482 79.2982 81.261V85.4717Z" fill="white"/>
<path d="M87.3855 85.2589H83.6104V81.2299H87.9563C87.7565 82.6464 87.5697 83.9514 87.3855 85.2589Z" fill="white"/>
<path d="M60.3267 103.962H56.2688V99.8496C57.4052 99.8496 58.5261 99.8107 59.6392 99.8808C59.8805 99.8963 60.28 100.288 60.2956 100.527C60.3656 101.645 60.3267 102.768 60.3267 103.959V103.962Z" fill="white"/>
<path d="M94.2377 101.02C93.0001 101.793 91.6821 102.62 90.172 103.565C89.6531 102.089 89.2198 100.856 88.7761 99.5954C89.679 99.0298 90.5171 98.5031 91.311 98.005C92.2062 98.9286 93.1246 99.8755 94.2351 101.022L94.2377 101.02Z" fill="white"/>
<path d="M104.084 58.1633V54.2095H108.064V58.1633H104.084Z" fill="white"/>
<path d="M45.8438 83.1159V79.175H49.8498V83.1159H45.8438Z" fill="white"/>
</g>
<defs>
<clipPath id="clip0_501_646">
<rect width="129" height="129" fill="white"/>
</clipPath>
</defs>
</svg>
